<svg xmlns="http://www.w3.org/2000/svg" width="62.604" height="100.329" viewBox="0 0 62.604 100.329"><defs><style>.a{fill:#423118;}.b{fill:#594220;}.c{fill:#4e5c08;}.d{fill:#688210;}.e{fill:#769413;}.f{fill:#8fb01b;}.g{fill:#ebd9b3;}.h{fill:#f2c38f;}.i{fill:#cb9049;}</style></defs><g transform="translate(15.755 0)"><g transform="translate(9.19 18.264)"><path class="a" d="M36.878,42.686a15.233,15.233,0,0,1-6.738,6.9c.036-1.355.1-2.246.2-3.755.761-10.932-1.188-23.861-1.3-29.815-.048,4.729-.285,20.962-1.271,28.412,0,0-3.042-1.058-6.785-9.6a76.536,76.536,0,0,0,5.5,12.525s-.7,12.988-2.222,18.264c0,0,4.563.463,6.9-.582a65.6,65.6,0,0,1-1.046-13.1C31.887,50.825,34.774,48.271,36.878,42.686Z" transform="translate(-20.99 -16.02)"/><path class="b" d="M25.192,63.257s1.676-11.218,1.866-16.731c0,0-.784-1.283-1.58-2.46a37.928,37.928,0,0,1-2.947-6.3c1.176,1.973,2.068,5.122,5.312,6.5.784-3.541.986-16.232,1.081-21.948a173.278,173.278,0,0,1,.3,22.934c-.2,4.04.2,4.135.2,4.135a16.618,16.618,0,0,0,4.23-3.054,14.643,14.643,0,0,1-4.325,4.135c-.487.986-.2,9.934.784,13.083C29.125,64.54,25,64.636,25.192,63.257Z" transform="translate(-20.7 -14.834)"/></g><g transform="translate(6.396)"><g transform="translate(0.762 1.612)"><path class="c" d="M51.424,19.277a3.051,3.051,0,0,1-.071.475,4.039,4.039,0,0,1-.143.4,2.332,2.332,0,0,1-.368.654,2.445,2.445,0,0,1-.463.463,3.171,3.171,0,0,1-.511.3,4.519,4.519,0,0,1-.963.285c-.285.048-.523.071-.665.107a1.729,1.729,0,0,1,.594,1.153,3.605,3.605,0,0,1-.25,1.83,3.2,3.2,0,0,1-1.3,1.533,2.532,2.532,0,0,1-1,.321,2.194,2.194,0,0,1-.559,0,2.77,2.77,0,0,1-.594-.119,4.437,4.437,0,0,1,.178,1.081,2.476,2.476,0,0,1-.119.784,1.188,1.188,0,0,1-.3.511.916.916,0,0,1-.416.261,1.042,1.042,0,0,1-.463.059,1.533,1.533,0,0,1-.463-.1,2.79,2.79,0,0,1-.772-.428,2.5,2.5,0,0,1,.071.939,2.933,2.933,0,0,1-.25.891,2.887,2.887,0,0,1-1.355,1.331,1.563,1.563,0,0,1-.463.178,3.577,3.577,0,0,1-.487.107,2.963,2.963,0,0,1-1.022-.1,2.44,2.44,0,0,1-.963-.5,3.3,3.3,0,0,1-.82-.927,8.437,8.437,0,0,1-.25,1.212,3.588,3.588,0,0,1-.535,1.117,2.327,2.327,0,0,1-1.01.784,3.071,3.071,0,0,1-.725.19,3.705,3.705,0,0,1-.879-.024c-.154-.024-.309-.048-.452-.083s-.273-.1-.392-.143a1.572,1.572,0,0,1-.345-.178,2.416,2.416,0,0,1-1.034-1.188,4.271,4.271,0,0,1-.261-.974,5.692,5.692,0,0,0-.107-.654,1.079,1.079,0,0,1-.452.356,2.292,2.292,0,0,1-.713.214,3.656,3.656,0,0,1-.879-.012,3.637,3.637,0,0,1-.939-.261,3.063,3.063,0,0,1-1.509-1.307,2.612,2.612,0,0,1-.178-2.151,4.37,4.37,0,0,1-1.081.154,2.266,2.266,0,0,1-.8-.107,1.375,1.375,0,0,1-.5-.309,2.38,2.38,0,0,1-.166-.19A1.829,1.829,0,0,1,24.2,27a1.461,1.461,0,0,1,.048-.927,2.553,2.553,0,0,1,.428-.761,2.8,2.8,0,0,1-2.591-.725,3.1,3.1,0,0,1-.321-.368,2.965,2.965,0,0,1-.25-.416,3.709,3.709,0,0,1-.178-.463,2.226,2.226,0,0,1-.107-.487,2.645,2.645,0,0,1,.071-1.01,3.085,3.085,0,0,1,.475-.974,3.905,3.905,0,0,1,.915-.832,5.1,5.1,0,0,1-2.341-.725,1.716,1.716,0,0,1-.463-.416,2.17,2.17,0,0,1-.356-.547,2.628,2.628,0,0,1-.214-.713c-.012-.131-.036-.261-.036-.416a3.03,3.03,0,0,1,.024-.452,2.944,2.944,0,0,1,.19-.832,2.349,2.349,0,0,1,.345-.642,2.573,2.573,0,0,1,.939-.772,7.69,7.69,0,0,1,1.6-.463,1.656,1.656,0,0,1-.642-1.117,3.511,3.511,0,0,1,.131-1.83,3.072,3.072,0,0,1,1.188-1.6,2.537,2.537,0,0,1,.963-.392,2.988,2.988,0,0,1,1.165.048A3.127,3.127,0,0,1,25.031,7.3,1.719,1.719,0,0,1,25.15,7a1.2,1.2,0,0,1,.166-.238,1.049,1.049,0,0,1,.4-.285A1.293,1.293,0,0,1,26.2,6.4a2.217,2.217,0,0,1,.475.083,2.631,2.631,0,0,1,.772.4,2.73,2.73,0,0,1-.083-.927,2.4,2.4,0,0,1,.261-.9A2.809,2.809,0,0,1,29.036,3.7a2.938,2.938,0,0,1,1-.25,2.545,2.545,0,0,1,.523.012,1.966,1.966,0,0,1,.523.119,3.561,3.561,0,0,1,.487.214,2.939,2.939,0,0,1,.452.333,3,3,0,0,1,.749.974h.012a8.724,8.724,0,0,1,.333-1.176,5.024,5.024,0,0,1,.273-.57,2.87,2.87,0,0,1,.345-.5A2.429,2.429,0,0,1,34.8,2.141a3.1,3.1,0,0,1,1.6-.059,4.587,4.587,0,0,1,.808.285,2.733,2.733,0,0,1,.582.428,2.535,2.535,0,0,1,.665,1.01,7.665,7.665,0,0,1,.285,1.64,1.707,1.707,0,0,1,1.165-.535c.143-.012.285-.024.428-.024s.285.024.44.036a3.641,3.641,0,0,1,.915.261c.154.071.3.143.452.226a3.094,3.094,0,0,1,.392.3,3.334,3.334,0,0,1,.368.345,2.572,2.572,0,0,1,.285.416,3.138,3.138,0,0,1,.214.452,3.7,3.7,0,0,1,.107.523,2.8,2.8,0,0,1-.1,1.153,4.5,4.5,0,0,1,1.069-.2,2.262,2.262,0,0,1,.784.071,2.212,2.212,0,0,1,.3.119,1.513,1.513,0,0,1,.226.154,1.069,1.069,0,0,1,.273.392,1.231,1.231,0,0,1,.083.463,2.217,2.217,0,0,1-.083.475,2.6,2.6,0,0,1-.38.772,2.758,2.758,0,0,1,1.39-.059,1.874,1.874,0,0,1,.44.131,2.879,2.879,0,0,1,1.426,1.236,2.78,2.78,0,0,1,.345.939,2.693,2.693,0,0,1-.012,1.022,3.13,3.13,0,0,1-1.283,1.878,8.778,8.778,0,0,1,1.212.178,3.383,3.383,0,0,1,1.153.475,3.056,3.056,0,0,1,.475.416,2.151,2.151,0,0,1,.356.57,2.9,2.9,0,0,1,.226.749A3.257,3.257,0,0,1,51.424,19.277Z" transform="translate(-19.28 -2.007)"/></g><g transform="translate(0.117)"><path class="d" d="M50.04,16.668a4.052,4.052,0,0,1-.154.867,3.6,3.6,0,0,1-.38.772,3.075,3.075,0,0,1-.487.535,2.445,2.445,0,0,1-1.093.475,6.981,6.981,0,0,1-1.652-.024,1.6,1.6,0,0,1,.345,1.2c-.012.131-.024.261-.048.4s-.071.273-.107.4a3.261,3.261,0,0,1-.416.808,2.151,2.151,0,0,1-.3.356,2.206,2.206,0,0,1-.345.321,2.665,2.665,0,0,1-.844.416,3.053,3.053,0,0,1-.475.083,2.38,2.38,0,0,1-.5-.024,2.806,2.806,0,0,1-.523-.131,4.527,4.527,0,0,1-.547-.261,3.2,3.2,0,0,1-.2,1.782.943.943,0,0,1-.761.57,1.984,1.984,0,0,1-1.509-.784,2.856,2.856,0,0,1-.036.9,2.643,2.643,0,0,1-.333.82,2.519,2.519,0,0,1-1.331,1.093c-.143.048-.285.083-.44.119-.143.012-.3.024-.452.024a2.564,2.564,0,0,1-.915-.214,2.611,2.611,0,0,1-.844-.594,3.26,3.26,0,0,1-.665-.986H35.02a8.165,8.165,0,0,1-.309,1.176,3.4,3.4,0,0,1-.559,1.069,2.12,2.12,0,0,1-.963.725,3.079,3.079,0,0,1-.689.143,2.031,2.031,0,0,1-.38,0,3.1,3.1,0,0,1-1.176-.321A2.222,2.222,0,0,1,30.386,28a2.287,2.287,0,0,1-.368-.487,2.843,2.843,0,0,1-.238-.511,4.5,4.5,0,0,1-.178-.963c-.036-.285-.036-.523-.071-.654a1.2,1.2,0,0,1-.428.368,2.574,2.574,0,0,1-.665.214,3.3,3.3,0,0,1-1.664-.2,2.747,2.747,0,0,1-1.39-1.2,2.575,2.575,0,0,1-.131-2.08,4.419,4.419,0,0,1-1.034.226,2.153,2.153,0,0,1-.761-.071,1.358,1.358,0,0,1-.487-.261.725.725,0,0,1-.143-.19.63.63,0,0,1-.1-.2,1.15,1.15,0,0,1-.048-.452,1.925,1.925,0,0,1,.107-.452,2.77,2.77,0,0,1,.452-.737,3,3,0,0,1-.915.1,2.771,2.771,0,0,1-.867-.238A2.6,2.6,0,0,1,20.2,18.9a2.536,2.536,0,0,1-.048-1.913,2.347,2.347,0,0,1,.238-.452,3.762,3.762,0,0,1,.333-.428,3.752,3.752,0,0,1,1.01-.677,4.938,4.938,0,0,1-2.234-.951l-.214-.214c-.059-.083-.131-.166-.178-.25a1.944,1.944,0,0,1-.273-.594,2.729,2.729,0,0,1,.036-1.569,2.629,2.629,0,0,1,.808-1.307A1.988,1.988,0,0,1,20.2,10.2a2.66,2.66,0,0,1,.547-.178,3.639,3.639,0,0,1,.986-.071c.285.012.523.036.665.024a1.169,1.169,0,0,1-.3-.487A2.12,2.12,0,0,1,22,8.79a3.3,3.3,0,0,1,.511-1.64A2.737,2.737,0,0,1,23.957,6a2.591,2.591,0,0,1,2.056.273,5.41,5.41,0,0,1-.024-1.058,2.2,2.2,0,0,1,.2-.725,1.142,1.142,0,0,1,.333-.428.834.834,0,0,1,.416-.166,1.356,1.356,0,0,1,.867.214,2.562,2.562,0,0,1,.654.559,2.684,2.684,0,0,1,.38-1.747,2.589,2.589,0,0,1,1.39-1.081,3.009,3.009,0,0,1,.927-.119,2.567,2.567,0,0,1,.915.25,2.755,2.755,0,0,1,.82.63,3.7,3.7,0,0,1,.63,1.034,8.635,8.635,0,0,1,.368-1.153,3.684,3.684,0,0,1,.618-1.046,2.8,2.8,0,0,1,.44-.392A1.964,1.964,0,0,1,35.5.769,2.87,2.87,0,0,1,36.173.65a3.645,3.645,0,0,1,.772.083,2.579,2.579,0,0,1,1.26.7,2.5,2.5,0,0,1,.57,1,8.535,8.535,0,0,1,.214,1.616,1.668,1.668,0,0,1,1.105-.559,2,2,0,0,1,.392-.036,2.513,2.513,0,0,1,.416.024,2.919,2.919,0,0,1,.428.071,2.452,2.452,0,0,1,.416.143A2.8,2.8,0,0,1,43.125,4.88a2.322,2.322,0,0,1,.273.939,2.956,2.956,0,0,1-.131,1.129,3.885,3.885,0,0,1,1.022-.238A2.531,2.531,0,0,1,44.7,6.7a1.487,1.487,0,0,1,.345.059A1.1,1.1,0,0,1,45.537,7a.962.962,0,0,1,.25.38,1.354,1.354,0,0,1-.036.891,2.575,2.575,0,0,1-.416.761,2.642,2.642,0,0,1,.9-.131,2.766,2.766,0,0,1,.452.048,3.01,3.01,0,0,1,.428.143,3.2,3.2,0,0,1,.4.2,2.679,2.679,0,0,1,.356.285,2.333,2.333,0,0,1,.559.749,1.883,1.883,0,0,1,.178.452,3.059,3.059,0,0,1,.1.475,3.5,3.5,0,0,1-.012.5,2.573,2.573,0,0,1-.107.487,2.807,2.807,0,0,1-1.521,1.628,4.579,4.579,0,0,1,2.234.951,2.311,2.311,0,0,1,.665,1.105A3.643,3.643,0,0,1,50.04,16.668Z" transform="translate(-18.737 -0.65)"/></g><g transform="translate(0 3.25)"><path class="e" d="M47.231,11.911a2.893,2.893,0,0,1-.083.654,2.276,2.276,0,0,1-.618,1.081,2.077,2.077,0,0,1-.5.345,2.024,2.024,0,0,1-.594.178,3.116,3.116,0,0,1,.333.511,3.5,3.5,0,0,1,.214.5,3.846,3.846,0,0,1,.083.463,2.363,2.363,0,0,1-.012.416,1.578,1.578,0,0,1-.071.356,1.6,1.6,0,0,1-.143.285,1.254,1.254,0,0,1-.867.57,1.757,1.757,0,0,1-.5-.012,2.531,2.531,0,0,1-.832-.3,2.654,2.654,0,0,1,.012,1.866,3.078,3.078,0,0,1-1.224,1.5,2.818,2.818,0,0,1-1.913.428,3.277,3.277,0,0,1-2-1.105,5.443,5.443,0,0,1-.333,2.424,2.623,2.623,0,0,1-2.293,1.509,3.093,3.093,0,0,1-1.592-.238,2.827,2.827,0,0,1-.951-.772,9.226,9.226,0,0,1-.8-1.473,1.289,1.289,0,0,1-.333.475,2.863,2.863,0,0,1-.63.392,3.5,3.5,0,0,1-.844.25,3.676,3.676,0,0,1-.963.036,3.206,3.206,0,0,1-1.842-.749,2.613,2.613,0,0,1-.356-.368,3.6,3.6,0,0,1-.285-.452,3.04,3.04,0,0,1-.3-1.129,3.34,3.34,0,0,1-1.735.713,1.3,1.3,0,0,1-.594-.1,1.355,1.355,0,0,1-.226-.119.8.8,0,0,1-.178-.166,1.451,1.451,0,0,1-.238-.416,2.217,2.217,0,0,1-.083-.475,2.553,2.553,0,0,1,.107-.879,2.572,2.572,0,0,1-.856.4,2.814,2.814,0,0,1-.951.071,2.959,2.959,0,0,1-1.83-.927l-.178-.214a2.881,2.881,0,0,1-.166-.238,2.436,2.436,0,0,1-.273-.535,2.781,2.781,0,0,1-.107-.285c-.024-.1-.048-.2-.071-.309s-.024-.2-.036-.3a1.448,1.448,0,0,1,0-.321,2.7,2.7,0,0,1,.024-.309c.024-.107.048-.2.071-.309s.071-.2.107-.3.1-.19.154-.273a2.227,2.227,0,0,1,.963-.844,3.786,3.786,0,0,1-1.141-.523,2.434,2.434,0,0,1-.879-1.01,1.6,1.6,0,0,1-.143-.356,2.824,2.824,0,0,1-.083-.368,2.879,2.879,0,0,1,.012-.844,3.6,3.6,0,0,1,.844-1.782,3.074,3.074,0,0,1,1.45-1,2.43,2.43,0,0,1,1.26-.059,7.654,7.654,0,0,1,1.569.642,1.045,1.045,0,0,1-.024-.582,2.383,2.383,0,0,1,.25-.7,3.785,3.785,0,0,1,1.283-1.331,3.174,3.174,0,0,1,1.937-.511,2.564,2.564,0,0,1,1.01.273,3.047,3.047,0,0,1,.9.737,4.743,4.743,0,0,1,.452-1.01,2.729,2.729,0,0,1,.511-.606,1.2,1.2,0,0,1,1.022-.3,1.386,1.386,0,0,1,.428.19,1.882,1.882,0,0,1,.356.333,2.516,2.516,0,0,1,.452.749A2.756,2.756,0,0,1,34.35,3.5a3.033,3.033,0,0,1,.986-.107,2.885,2.885,0,0,1,1.818.8,3.3,3.3,0,0,1,.927,2.091,11.553,11.553,0,0,1,.772-.974,3.985,3.985,0,0,1,.951-.772,2.635,2.635,0,0,1,2.733.166,3.032,3.032,0,0,1,1.129,1.141,2.7,2.7,0,0,1,.25.618A3.274,3.274,0,0,1,44,7.039a3.942,3.942,0,0,1-.024.547,4.8,4.8,0,0,1-.1.475c-.059.285-.131.511-.154.654a1.343,1.343,0,0,1,.57-.143,2.489,2.489,0,0,1,.772.143,3.369,3.369,0,0,1,1.616,1.343,3.541,3.541,0,0,1,.3.559,4.138,4.138,0,0,1,.19.63.8.8,0,0,1,.024.166.8.8,0,0,1,.024.166A3.114,3.114,0,0,1,47.231,11.911Z" transform="translate(-18.639 -3.385)"/></g><g transform="translate(1.211 4.121)"><path class="f" d="M46.029,13.627a1.886,1.886,0,0,1-.071.452,1.268,1.268,0,0,1-.083.226c-.036.071-.083.131-.119.2s-.107.119-.154.178a1.893,1.893,0,0,0-.154.154,1.664,1.664,0,0,1-.19.119.947.947,0,0,1-.19.1,1.45,1.45,0,0,1-.2.083c-.071.012-.143.036-.214.048a1.656,1.656,0,0,1-.416.048,1.6,1.6,0,0,1-.416-.024,2.424,2.424,0,0,1-.7-.178,5.113,5.113,0,0,1,.772,1.236,1.1,1.1,0,0,1-.1.939,1.13,1.13,0,0,1-.178.238,1.978,1.978,0,0,1-.285.214,1.9,1.9,0,0,1-.38.178,2.619,2.619,0,0,1-.487.143c-.19.036-.368.059-.547.083a2.8,2.8,0,0,1-.547.012,4.208,4.208,0,0,1-.974-.119,4.867,4.867,0,0,1-.832-.285,3.5,3.5,0,0,1-.642-.416,3.111,3.111,0,0,1-.82-1.058,2.6,2.6,0,0,1-.2-.582,5.193,5.193,0,0,1-.143-.582c-.618,1.652-1.664,2.27-2.591,2.151a2.649,2.649,0,0,1-2.056-2.163A2.192,2.192,0,0,1,32.2,16.36c-.452.2-1.034-.1-1.676-1.569a2.337,2.337,0,0,1-2.781,1.592.28.28,0,0,1-.1-.024l-.048-.012a.515.515,0,0,0-.059-.012c-.1-.024-.19-.048-.273-.071-.178-.059-.345-.119-.511-.19a2.787,2.787,0,0,1-.749-.463.876.876,0,0,1-.345-1.01c-.154.1-.392.273-.7.475a5.785,5.785,0,0,1-1.188.606,4.887,4.887,0,0,1-.772.226c-.143.024-.285.048-.44.071s-.285.012-.44.012a3.029,3.029,0,0,1-.463-.024,3.313,3.313,0,0,1-.452-.083,2.582,2.582,0,0,1-.428-.143c-.071-.036-.143-.059-.2-.1a1.026,1.026,0,0,1-.19-.119,1.729,1.729,0,0,1-.535-.523.9.9,0,0,1-.131-.261,1.038,1.038,0,0,1-.059-.261,1.487,1.487,0,0,1,.285-.939,2.729,2.729,0,0,1,.356-.392,3.2,3.2,0,0,1,.44-.356c.166-.107.321-.2.5-.3s.356-.178.523-.261a2.7,2.7,0,0,1-1.022-.38,1.662,1.662,0,0,1-.547-.618,1.325,1.325,0,0,1,.261-1.45,3.293,3.293,0,0,1,1.866-1,4.384,4.384,0,0,1,2.353.166,1.649,1.649,0,0,1-.428-.654.749.749,0,0,1,.143-.761,1.374,1.374,0,0,1,1.093-.392,2.458,2.458,0,0,1,.867.178,2.545,2.545,0,0,1,.891.594,2.578,2.578,0,0,1,.725-1.83,2.322,2.322,0,0,1,1.485-.63,2.714,2.714,0,0,1,1.473.356,1.563,1.563,0,0,1,.8.879,8.492,8.492,0,0,1,.618-1.485,2.278,2.278,0,0,1,.761-.784,2.2,2.2,0,0,1,1.271-.309,2.166,2.166,0,0,1,1.236.428,1.887,1.887,0,0,1,.665.891A6.027,6.027,0,0,1,36.546,7.8a4.081,4.081,0,0,1,.808-.867,2.594,2.594,0,0,1,.856-.452,2.036,2.036,0,0,1,1.592.143,2.231,2.231,0,0,1,.606.5l.083.083c.024.024.048.059.083.1a2.49,2.49,0,0,1,.166.2,2.863,2.863,0,0,1,.273.428,1.85,1.85,0,0,1,.19.844,1.454,1.454,0,0,1-.273.784,3.185,3.185,0,0,1,.963-.285,2.194,2.194,0,0,1,1.141.119,1.358,1.358,0,0,1,.452.3.813.813,0,0,1,.226.463.875.875,0,0,1-.131.57,1.735,1.735,0,0,1-.238.3,2.337,2.337,0,0,1-.356.285,4.007,4.007,0,0,1,2.472,1.022,1.359,1.359,0,0,1,.178.2l.143.214a.722.722,0,0,1,.107.214.8.8,0,0,1,.083.214,1.931,1.931,0,0,1,.048.226A1.516,1.516,0,0,1,46.029,13.627Z" transform="translate(-19.657 -4.118)"/></g></g><g transform="translate(0 27.29)"><g transform="translate(1.148 0.219)"><path class="c" d="M29.24,32.712a2.393,2.393,0,0,1-1.117,1.5,2.2,2.2,0,0,1-1.771.214,2.5,2.5,0,0,1,.452.737,2.143,2.143,0,0,1,.1.463,1.171,1.171,0,0,1-.083.452,1,1,0,0,1-.82.618,2.549,2.549,0,0,1-1.747-.452,2.209,2.209,0,0,1-.642,1.961,2.621,2.621,0,0,1-1.806.665,2.923,2.923,0,0,1-1.687-.559,1.518,1.518,0,0,1-.654-1.081,4.631,4.631,0,0,1-1.2,1.153,2.091,2.091,0,0,1-1.26.273,1.662,1.662,0,0,1-.4-.059,3.089,3.089,0,0,1-.428-.154,3.472,3.472,0,0,1-1.913-2.424,2.147,2.147,0,0,1,.25-1.462,2.463,2.463,0,0,1,.9-.879,5.14,5.14,0,0,1,1.117-.487,3.517,3.517,0,0,1-1.058-.523,2.982,2.982,0,0,1-.4-.356,3.108,3.108,0,0,1-.285-.4,2.13,2.13,0,0,1-.285-.879,2.379,2.379,0,0,1,.083-.915,2.309,2.309,0,0,1,.178-.428,1.66,1.66,0,0,1,.107-.2c.048-.059.1-.131.143-.19a4.1,4.1,0,0,1,.309-.333,4.108,4.108,0,0,1,.368-.261,2.578,2.578,0,0,1,.416-.178,1.366,1.366,0,0,1,.2-.071c.083-.012.154-.024.226-.036a2.64,2.64,0,0,1,.915.048,1.9,1.9,0,0,1-.261-.321,2.068,2.068,0,0,1-.214-.392,1.493,1.493,0,0,1-.119-.452,1.438,1.438,0,0,1-.012-.226.794.794,0,0,1,.059-.226.913.913,0,0,1,.261-.392,1.153,1.153,0,0,1,.511-.261,1.617,1.617,0,0,1,.356-.048,2.681,2.681,0,0,1,.416.036,4.451,4.451,0,0,1,.463.119c.166.071.345.143.523.238a3.429,3.429,0,0,1-.048-.594,2.517,2.517,0,0,1,.083-.535,2.151,2.151,0,0,1,.214-.475,2.432,2.432,0,0,1,.309-.4,2.611,2.611,0,0,1,1.866-.725,1.755,1.755,0,0,1,.25.012l.25.036a3.09,3.09,0,0,1,.475.119,3.371,3.371,0,0,1,.416.19c.071.036.131.071.19.107a2.031,2.031,0,0,1,.166.131,1.462,1.462,0,0,1,.618,1.105c.107-.1.261-.273.463-.463a3.325,3.325,0,0,1,.832-.594,2.7,2.7,0,0,1,.594-.166,3.139,3.139,0,0,1,.345-.024,1.907,1.907,0,0,1,.356.036,2.54,2.54,0,0,1,.808.285c.131.083.273.166.416.273s.261.238.392.368a3.183,3.183,0,0,1,.594.856c.036.071.059.143.1.214a1,1,0,0,1,.059.2,2.718,2.718,0,0,1,.083.4,1.919,1.919,0,0,1,.024.368,3.012,3.012,0,0,1-.048.345,2.456,2.456,0,0,1-.226.606,4.067,4.067,0,0,1-1.913,1.485,4.512,4.512,0,0,1,.606.166c.1.036.19.083.273.119s.166.1.25.143a2.384,2.384,0,0,1,.737.725A2.3,2.3,0,0,1,29.24,32.712Z" transform="translate(-14.222 -23.8)"/></g><path class="d" d="M27.4,31.689a3.131,3.131,0,0,1-2.2,1.058,2.451,2.451,0,0,1-.012,1.4,3.088,3.088,0,0,1-.761,1.3,3.369,3.369,0,0,1-.3.285c-.1.083-.214.166-.321.25a3.622,3.622,0,0,1-.356.226,4.266,4.266,0,0,1-.4.2,4.7,4.7,0,0,1-3.434.131l-.178-.059c-.059-.024-.119-.059-.178-.083a2.9,2.9,0,0,1-.333-.166,2.687,2.687,0,0,1-.309-.19c-.083-.059-.178-.131-.261-.2a2.293,2.293,0,0,1-.416-.416A2.166,2.166,0,0,1,17.657,35a1.982,1.982,0,0,1-.131-.368.929.929,0,0,1-.012-.309c-.166.012-.428.107-.761.143a2.945,2.945,0,0,1-.582.036,2.457,2.457,0,0,1-.713-.166,2.537,2.537,0,0,1-.416-.19c-.131-.083-.273-.178-.416-.285a4.383,4.383,0,0,1-.416-.4c-.071-.083-.143-.166-.2-.25l-.178-.285a2.782,2.782,0,0,1-.178-.321q-.071-.16-.143-.356l-.071-.19c-.012-.059-.036-.131-.048-.19-.036-.143-.059-.285-.083-.428a4.62,4.62,0,0,1,.131-1.984,5.262,5.262,0,0,1,.38-1,.482.482,0,0,1,.059-.107l.048-.1c.048-.071.083-.131.119-.19.083-.131.166-.25.238-.368.166-.2.333-.38.487-.547a4.962,4.962,0,0,1,.5-.4c.071-.048.154-.107.238-.154a2.064,2.064,0,0,1,.226-.119,5,5,0,0,1,.463-.2,3.592,3.592,0,0,1,.832-.143,3.077,3.077,0,0,1,.749.083,3.008,3.008,0,0,1,.654.214,7.563,7.563,0,0,1,1.141.665,3.363,3.363,0,0,1,1.165-2.507,4.079,4.079,0,0,1,1.378-.772c.143-.036.273-.071.428-.107.071-.012.154-.024.238-.036.036-.012.071-.012.119-.024l.131-.012a4.405,4.405,0,0,1,1.046.036,3.832,3.832,0,0,1,1.83.761,3.255,3.255,0,0,1,1.046,1.4,2.667,2.667,0,0,1,.131,1.438,1.975,1.975,0,0,1-.535,1.01,1.522,1.522,0,0,1,.856.487A1.968,1.968,0,0,1,27.96,30,2.334,2.334,0,0,1,27.4,31.689Z" transform="translate(-13.257 -23.616)"/><g transform="translate(0.631 0.203)"><path class="e" d="M24.616,31.277a1.766,1.766,0,0,1-1.545.784,3.19,3.19,0,0,1,.428,1.4,1.482,1.482,0,0,1-.071.654,1.241,1.241,0,0,1-.333.535,1.722,1.722,0,0,1-1.01.487,2.563,2.563,0,0,1-1.212-.131,4.065,4.065,0,0,1-1.212-.7,4.506,4.506,0,0,1-.951-1.022,3.443,3.443,0,0,1-.5-1.01,1.245,1.245,0,0,1-.048-.737c-.143.024-.356.119-.642.178a1.74,1.74,0,0,1-.511.048,2.269,2.269,0,0,1-.654-.107,2.962,2.962,0,0,1-.772-.392,3.823,3.823,0,0,1-.832-.772,4.318,4.318,0,0,1-.7-1.2,4.246,4.246,0,0,1-.261-1.58,3.568,3.568,0,0,1,.345-1.45,3.2,3.2,0,0,1,.725-.963,2.455,2.455,0,0,1,1.676-.63,2.485,2.485,0,0,1,1.343.452,3.818,3.818,0,0,1,.891.915,2.14,2.14,0,0,1,.178-.654c.048-.1.1-.2.154-.3a1.475,1.475,0,0,1,.2-.273,2.726,2.726,0,0,1,1.129-.82,2.957,2.957,0,0,1,2.8.345,2.923,2.923,0,0,1,.9,1.081A2.719,2.719,0,0,1,24.4,26.69a2.3,2.3,0,0,1-.083.582,2.512,2.512,0,0,1-.2.523,2.021,2.021,0,0,1-.689.725,1.817,1.817,0,0,1,.832.368,1.606,1.606,0,0,1,.38.416,1.753,1.753,0,0,1,.238.57A1.8,1.8,0,0,1,24.616,31.277Z" transform="translate(-13.787 -23.786)"/></g><g transform="translate(1.389 1.797)"><path class="f" d="M22.345,29.551a.9.9,0,0,1-.143.226,1.939,1.939,0,0,1-.238.2,1.5,1.5,0,0,1-1.6-.2,3.356,3.356,0,0,1,.2,1.022,1.294,1.294,0,0,1-.475.808,1.645,1.645,0,0,1-.416.261,1.8,1.8,0,0,1-.487.107,1.684,1.684,0,0,1-.951-.154,1.614,1.614,0,0,1-.665-.511,1.256,1.256,0,0,1-.2-.309,1.8,1.8,0,0,1-.107-.333A1.2,1.2,0,0,1,17.52,29.6a3.607,3.607,0,0,1-1.533.321,1.58,1.58,0,0,1-.547-.154,1.56,1.56,0,0,1-.535-.416A1.922,1.922,0,0,1,14.68,29a1.987,1.987,0,0,1-.178-.452,2.233,2.233,0,0,1-.071-.582,1.7,1.7,0,0,1,.012-.345,2.153,2.153,0,0,1,.059-.368,2.73,2.73,0,0,1,.25-.7,2.553,2.553,0,0,1,.166-.309,2.186,2.186,0,0,1,.2-.261,2.293,2.293,0,0,1,.416-.416,2.409,2.409,0,0,1,.214-.154l.214-.107a1.737,1.737,0,0,1,.761-.154.911.911,0,0,1,.321.048,1.015,1.015,0,0,1,.285.107c.083.036.178.1.273.143a1.852,1.852,0,0,1,.238.19c.071.071.143.143.2.214a.465.465,0,0,1,.1.119.637.637,0,0,1,.059.131c.178.345.333.713.487,1.069a1.993,1.993,0,0,1,.772-1.818,1.829,1.829,0,0,1,.416-.178,1.425,1.425,0,0,1,.452-.048,1.715,1.715,0,0,1,.879.285,1.7,1.7,0,0,1,.606.689,1.59,1.59,0,0,1,.178.867,1.547,1.547,0,0,1-.3.784A1.8,1.8,0,0,1,21,28.28a1.72,1.72,0,0,1,.82.131,1.123,1.123,0,0,1,.368.25.945.945,0,0,1,.214.4A.88.88,0,0,1,22.345,29.551Z" transform="translate(-14.426 -25.127)"/></g></g></g><g transform="translate(0 70.954)"><g transform="translate(8.958 9.043)"><path class="g" d="M16.347,69.691s-1.248,1-2.947,2.246a15.586,15.586,0,0,0-5.68,7.926c1-3.981,1.2-4.765,3.529-6.8s5.763-4.9,5.763-4.9Z" transform="translate(-7.502 -67.932)"/><path class="a" d="M17.225,68.077a.119.119,0,0,0-.048-.059.249.249,0,0,0-.131-.048h-.012a.217.217,0,0,0-.131.059c-.036.024-3.47,2.888-5.775,4.9-.107.1-.2.178-.3.273H10.82c-.119.107-.226.214-.333.321h-.012a.164.164,0,0,0-.036.048c-.166.154-.321.309-.452.452-1.343,1.426-1.64,2.579-2.448,5.811a.221.221,0,0,0,.154.261.107.107,0,0,0,.059.012.2.2,0,0,0,.2-.154,15.437,15.437,0,0,1,5.609-7.807c.808-.594,1.509-1.129,2.032-1.533.131-.1.25-.19.356-.261.345-.285.547-.452.559-.452a.242.242,0,0,0,.071-.083l.654-1.533A.2.2,0,0,0,17.225,68.077ZM8.8,76.859a7.369,7.369,0,0,1,2.626-3.612c1.64-1.438,3.874-3.327,5.015-4.278a.164.164,0,0,0,.048-.036l-.285.654a1.2,1.2,0,0,0-.166.143c-.428.333-1.45,1.129-2.733,2.068A16.664,16.664,0,0,0,8.8,76.859Z" transform="translate(-7.536 -67.97)"/></g><g transform="translate(3.898 14.272)"><path class="g" d="M11.6,72.56a18.686,18.686,0,0,0-8.14,6.346c.285-2.032,2.614-4.028,4.361-4.9A23.894,23.894,0,0,1,11.6,72.56Z" transform="translate(-3.244 -72.334)"/><path class="a" d="M11.812,72.489a.234.234,0,0,0-.178-.119h-.012a.129.129,0,0,0-.059.012,26.766,26.766,0,0,0-3.814,1.462c-.226.119-.475.25-.737.416-.083.048-.166.107-.25.166a1.441,1.441,0,0,0-.166.119H6.584l-.356.25C4.873,75.816,3.506,77.3,3.28,78.906a.208.208,0,0,0,.131.226.232.232,0,0,0,.083.012.214.214,0,0,0,.178-.083,18.279,18.279,0,0,1,7.118-5.87c.226-.119.4-.2.547-.261q.339-.143.356-.143a.209.209,0,0,0,.131-.261C11.824,72.513,11.812,72.5,11.812,72.489ZM4.136,77.741A9.317,9.317,0,0,1,7.95,74.224c.154-.071.333-.154.5-.238A18.417,18.417,0,0,0,4.136,77.741Z" transform="translate(-3.278 -72.37)"/></g><g transform="translate(0 15.971)"><path class="g" d="M7.607,74.192s-4.48.333-7.427,2.282C1.511,74.359,5.741,73.575,7.607,74.192Z" transform="translate(0.036 -73.765)"/><path class="a" d="M7.831,74.121a.26.26,0,0,0-.119-.107.759.759,0,0,0-.083-.024,5.714,5.714,0,0,0-1.521-.19c-2.222,0-5.015.891-6.072,2.59a.216.216,0,0,0,.024.273.25.25,0,0,0,.154.059.229.229,0,0,0,.119-.036,16.907,16.907,0,0,1,6.512-2.163c.166-.012.321-.036.44-.048.226-.024.356-.036.368-.036a.216.216,0,0,0,.2-.19A.235.235,0,0,0,7.831,74.121ZM1.4,75.594A8.669,8.669,0,0,1,5.93,74.24,18.481,18.481,0,0,0,1.4,75.594Z" transform="translate(0.002 -73.8)"/></g><g transform="translate(17.937 2.605)"><path class="g" d="M23.316,62.74s-1.794,3.149-.143,8.021,4.587,8.021,3.434,12.893a17.02,17.02,0,0,0-2.507-8.6,12.056,12.056,0,0,1-1.509-3.434A29.692,29.692,0,0,0,20.511,78a13.857,13.857,0,0,1,1.069-5.514s-5.157,6.084-6.227,10.386c-.654-2.293,2.436-7.379,6.013-10.956C22.46,70.761,20.808,64.38,23.316,62.74Z" transform="translate(-15.06 -62.517)"/><path class="a" d="M25.083,74.706a37.466,37.466,0,0,1-1.676-3.981,10.782,10.782,0,0,1-.107-7.308,2.918,2.918,0,0,1,.19-.44.488.488,0,0,1,.048-.107.2.2,0,0,0-.036-.238c0-.012,0-.012-.012-.024a.215.215,0,0,0-.261-.024,2.576,2.576,0,0,0-.856.963,3.991,3.991,0,0,0-.238.511,2.741,2.741,0,0,0-.119.333,15.829,15.829,0,0,0-.392,4.349c0,1.367,0,2.662-.368,3.042-3.458,3.458-6.761,8.71-6.072,11.17a.228.228,0,0,0,.214.154.2.2,0,0,0,.2-.154c.8-3.173,3.9-7.4,5.383-9.3a11.907,11.907,0,0,0-.642,4.4.228.228,0,0,0,.2.2.258.258,0,0,0,.226-.178,27.106,27.106,0,0,1,1.818-5.775,17.06,17.06,0,0,0,1.367,2.9c.19.356.392.713.57,1.081a.9.9,0,0,1,.107.214c.178.333.333.677.475,1.022a1.826,1.826,0,0,1,.1.226,15.027,15.027,0,0,1,1.224,5.953.218.218,0,0,0,.19.214h.024a.218.218,0,0,0,.214-.166C27.674,80.255,26.473,77.689,25.083,74.706Zm-.107,1.509c-.214-.428-.428-.832-.654-1.236a11.831,11.831,0,0,1-1.473-3.363.215.215,0,0,0-.19-.178.224.224,0,0,0-.226.119,33.723,33.723,0,0,0-1.462,3.862,15.829,15.829,0,0,1,.856-2.828.225.225,0,0,0-.083-.261.22.22,0,0,0-.285.048c-.19.226-4.314,5.122-5.882,9.233.392-2.4,2.816-6.346,6-9.53.475-.511.475-1.759.475-3.339a12.305,12.305,0,0,1,.606-4.836h.012A11.463,11.463,0,0,0,23,70.856a40.143,40.143,0,0,0,1.687,4.04c1.034,2.2,1.949,4.171,2,6.464A16.7,16.7,0,0,0,24.976,76.215Z" transform="translate(-15.093 -62.552)"/></g><g transform="translate(24.703 16.137)"><path class="g" d="M24.154,75.154a13.778,13.778,0,0,0-2.876,9.4c-.891-3.018.273-7.819,2.4-10.433Z" transform="translate(-20.751 -73.906)"/><path class="a" d="M24.379,75.093,23.9,74.071a.23.23,0,0,0-.166-.131.24.24,0,0,0-.131.036c-.024,0-.048.024-.071.048s-.059.071-.083.107c-2.163,2.733-3.244,7.51-2.353,10.517a.2.2,0,0,0,.2.154.242.242,0,0,0,.226-.214.151.151,0,0,0-.012-.071,14.031,14.031,0,0,1,2.614-8.924c.059-.083.119-.143.154-.19a.728.728,0,0,1,.059-.071A.215.215,0,0,0,24.379,75.093Zm-.452.059a13.442,13.442,0,0,0-2.7,6.559,13.884,13.884,0,0,1,2.424-7.142Z" transform="translate(-20.786 -73.94)"/></g><g transform="translate(32.13 11.919)"><path class="g" d="M29.074,72.042s-2.282,6.7-.915,12.144c-1.58-4.076-.927-9.6.214-13.606A4.658,4.658,0,0,1,29.074,72.042Z" transform="translate(-27.002 -70.354)"/><path class="a" d="M29.3,71.935a1.231,1.231,0,0,0-.048-.119,6.019,6.019,0,0,0-.44-.939,4.256,4.256,0,0,0-.214-.38.254.254,0,0,0-.214-.107h-.012c-.024.012-.048.012-.059.024a.171.171,0,0,0-.107.131c0,.012-.012.024-.012.036-.57,1.961-2.175,8.6-.2,13.713a.231.231,0,0,0,.2.143.226.226,0,0,0,.226-.226.192.192,0,0,0-.036-.107c-1.093-4.456.285-9.815.772-11.455a2.967,2.967,0,0,1,.1-.3v-.012c.036-.131.059-.19.059-.2a.232.232,0,0,0,.012-.1C29.322,72.03,29.31,71.994,29.3,71.935Zm-1.747,8.4a27.854,27.854,0,0,1,.927-9.162,4.3,4.3,0,0,1,.392.856c0,.012.012.024.012.036A29.434,29.434,0,0,0,27.552,80.336Z" transform="translate(-27.036 -70.39)"/></g><g transform="translate(37.372 18.799)"><path class="g" d="M32.01,77.855a16.949,16.949,0,0,1,4.052,8.663c-.214-4.171-1.319-7.451-4.432-10.148A3.466,3.466,0,0,1,32.01,77.855Z" transform="translate(-31.414 -76.144)"/><path class="a" d="M31.807,76.239c-.012-.012-.036-.024-.048-.036l-.012-.012a.2.2,0,0,0-.2.036l-.012.012a.208.208,0,0,0-.071.238,5.394,5.394,0,0,1,.333,1.069c0,.012.012.024.012.036a1.313,1.313,0,0,1,.024.25v.024a.262.262,0,0,0,.071.178l.059.059q.089.089.321.356c.083.107.19.238.309.392a18.405,18.405,0,0,1,3.3,7.748.218.218,0,0,0,.214.166h.024a.221.221,0,0,0,.19-.226C36.073,81.824,34.718,78.747,31.807,76.239Zm.535,1.64-.083-.083a2.438,2.438,0,0,0-.036-.333c-.024-.1-.048-.2-.083-.333A11.644,11.644,0,0,1,35.526,83.5a16.286,16.286,0,0,0-3.173-5.609A.012.012,0,0,0,32.342,77.879Z" transform="translate(-31.448 -76.18)"/></g><g transform="translate(10.096 1.671)"><path class="g" d="M17.164,62.471s-.44-.119-1.984,2.068S10.9,69.66,8.68,69.66c3.208-2.1,4.6-3.565,5.514-5.395a5.245,5.245,0,0,1,1.818-2.305Z" transform="translate(-8.459 -61.73)"/><path class="a" d="M17.342,62.329a.108.108,0,0,0-.083-.036l-1.129-.511a.191.191,0,0,0-.178.012,2.948,2.948,0,0,0-.368.261c-.059.059-.131.119-.2.19-.059.048-.119.119-.19.19a7.957,7.957,0,0,0-1.165,1.747c-.951,1.9-2.424,3.339-5.431,5.312a.232.232,0,0,0-.1.25.218.218,0,0,0,.2.154c1.485,0,3.078-1.176,4.337-2.424.119-.119.226-.238.333-.345.261-.285.523-.559.749-.832.1-.119.2-.226.285-.345.475-.57.82-1.034.986-1.271a7.523,7.523,0,0,1,1.7-1.937.351.351,0,0,0,.048-.036H17.2a.228.228,0,0,0,.214-.166.071.071,0,0,0,.012-.048A.227.227,0,0,0,17.342,62.329Zm-.642.178c-.059.048-.119.1-.19.154a10.864,10.864,0,0,0-1.473,1.771,13.648,13.648,0,0,1-.844,1.105,5.166,5.166,0,0,1-.4.487,10.9,10.9,0,0,1-4.112,3.256c2.519-1.735,3.85-3.113,4.741-4.9a6.4,6.4,0,0,1,1.3-1.854.962.962,0,0,1,.2-.19.92.92,0,0,1,.143-.119l.5.226Z" transform="translate(-8.494 -61.766)"/></g><g transform="translate(12.114 5.442)"><path class="g" d="M13.151,66.081s-.986,3.565-2.781,5.038c1.937-.951,3.173-3.648,3.494-5.989A4.768,4.768,0,0,1,13.151,66.081Z" transform="translate(-10.159 -64.904)"/><path class="a" d="M14.075,65.035a.37.37,0,0,0-.107-.083.3.3,0,0,0-.1-.012.233.233,0,0,0-.154.107c-.083.143-.166.261-.25.38a4.527,4.527,0,0,1-.428.523.21.21,0,0,0-.059.1,2.766,2.766,0,0,1-.119.38c-.036.131-.1.273-.143.452a10.359,10.359,0,0,1-2.448,4.1.22.22,0,0,0-.048.285.248.248,0,0,0,.19.1.113.113,0,0,0,.083-.024c2.008-.974,3.244-3.672,3.589-5.977a.947.947,0,0,0,.036-.178A.163.163,0,0,0,14.075,65.035Zm-2.056,4.42a15.177,15.177,0,0,0,1.355-3.244,1.576,1.576,0,0,0,.143-.143A9.445,9.445,0,0,1,12.02,69.456Z" transform="translate(-10.192 -64.94)"/></g><g transform="translate(1.902 1.208)"><path class="g" d="M10.645,61.618S9.575,65.967,6.022,67.69s-4.242,3.6-4.242,3.6A18.1,18.1,0,0,1,5.428,68.6c1.616-.749,4.516-1.83,5.906-7.035Z" transform="translate(-1.564 -61.34)"/><path class="a" d="M11.546,61.452a.1.1,0,0,0-.059-.036.134.134,0,0,0-.131-.036h-.048l-.44.036c-.012-.012-.012,0-.024,0l-.178.012a.264.264,0,0,0-.131.059c-.012.012-.012.012-.012.024a.041.041,0,0,0-.012.024c-.024.012-.024.036-.036.059a.8.8,0,0,1-.048.143c0,.024-.012.036-.012.059-.024.059-.036.119-.059.19C10,63.08,8.766,66.17,5.961,67.524c-3.577,1.735-4.314,3.636-4.349,3.719a.2.2,0,0,0,.083.25.229.229,0,0,0,.119.036.2.2,0,0,0,.154-.059,17.965,17.965,0,0,1,3.589-2.638l.261-.131a11.186,11.186,0,0,0,2.032-1.117c.083-.059.154-.107.238-.178a1.851,1.851,0,0,0,.238-.19A2.033,2.033,0,0,0,8.564,67c.083-.071.166-.143.25-.226s.154-.154.238-.238a10.957,10.957,0,0,0,2.484-4.706,1.167,1.167,0,0,0,.059-.19v-.024A.185.185,0,0,0,11.546,61.452Zm-.463.416A10.477,10.477,0,0,1,8.8,66.17a6.632,6.632,0,0,1-.915.844,10.143,10.143,0,0,1-2.246,1.3l-.261.131a10.888,10.888,0,0,0-2.032,1.307,12,12,0,0,1,2.8-1.842c3.2-1.545,4.42-5.1,4.67-6a.2.2,0,0,0,.024-.059l.25-.012C11.095,61.844,11.083,61.856,11.083,61.868Z" transform="translate(-1.598 -61.376)"/></g><g transform="translate(5.183 5.993)"><path class="g" d="M7.546,66.174a4.958,4.958,0,0,1-1.39,3.541C4.54,71.545,4.54,72.353,4.54,72.353s3.494-2.745,3.767-6.773Z" transform="translate(-4.326 -65.37)"/><path class="a" d="M8.507,65.506s.012,0,0-.012a.139.139,0,0,0-.071-.071.232.232,0,0,0-.154-.012c-.024.012-.059.024-.083.036l-.749.594a.2.2,0,0,0-.083.178v.036c0,.059,0,.154-.012.285a1.309,1.309,0,0,1-.024.285,4.825,4.825,0,0,1-1.307,2.781C4.408,71.448,4.36,72.292,4.36,72.387a.212.212,0,0,0,.119.19.28.28,0,0,0,.1.024.179.179,0,0,0,.131-.048c.143-.119,3.494-2.769,3.826-6.773,0-.048.012-.107.012-.154A.114.114,0,0,0,8.507,65.506Zm-.463.737a10.27,10.27,0,0,1-2.971,5.395A9.294,9.294,0,0,1,6.344,69.9a5.307,5.307,0,0,0,1.462-3.446V66.3l.261-.2C8.056,66.148,8.056,66.2,8.044,66.243Z" transform="translate(-4.36 -65.403)"/></g><g transform="translate(2.711)"><path class="g" d="M10.2,61.752s-4.409-1.771-7.736-.214c1.937-1.4,5.965-1.236,8.484-.059Z" transform="translate(-2.246 -60.326)"/><path class="a" d="M11.074,61.323c-.012,0-.012-.012-.024-.012a2.987,2.987,0,0,0-.345-.143,11.4,11.4,0,0,0-4.29-.808,7.085,7.085,0,0,0-4.052,1.034.234.234,0,0,0-.059.285.228.228,0,0,0,.285.083,7.225,7.225,0,0,1,3.1-.618,12.974,12.974,0,0,1,3.446.511c.119.036.226.059.321.1.333.107.559.19.642.214.036.024.048.024.048.024.036,0,.059.012.083.012s.036-.012.059-.012H10.3l.238-.083.048-.024.178-.059.285-.107a.179.179,0,0,0,.119-.107.044.044,0,0,0,.012-.036.071.071,0,0,0,.012-.048A.192.192,0,0,0,11.074,61.323Zm-1.26.083a15.088,15.088,0,0,0-2.579-.594,10.726,10.726,0,0,1,2.733.547,2.091,2.091,0,0,1,.356.119c.024.012.048.012.071.024l-.166.048c-.024-.012-.048-.012-.071-.024C10.075,61.489,9.957,61.453,9.814,61.406Z" transform="translate(-2.28 -60.36)"/></g><g transform="translate(32.842 6.352)"><path class="g" d="M28.117,67.328a15.21,15.21,0,0,0,3.529,3.351c2.591,1.913,5.644,3.137,7.177,7.474-.844-3.862-2.674-4.967-5.015-6.536S28.3,67.8,27.82,65.89A8.663,8.663,0,0,0,28.117,67.328Z" transform="translate(-27.601 -65.671)"/><path class="a" d="M34.2,71.64l-.25-.166c-.642-.44-1.545-1.034-2.448-1.723-.083-.071-.178-.143-.273-.226a2.369,2.369,0,0,1-.285-.226l-.333-.261c-.071-.059-.143-.131-.226-.2s-.154-.131-.238-.2a6.479,6.479,0,0,1-2.091-2.769c0-.012,0-.024-.012-.024a.21.21,0,0,0-.238-.131H27.8a.2.2,0,0,0-.154.25,8.7,8.7,0,0,0,.321,1.521,3.408,3.408,0,0,0,.285.368c.071.107.19.238.321.392a18.932,18.932,0,0,0,2.971,2.65c.511.368,1.046.725,1.557,1.058.309.2.618.416.939.63l.25.178c.071.048.143.107.226.166.059.036.119.083.178.119a1.853,1.853,0,0,0,.238.19c.083.059.154.119.238.19a10.324,10.324,0,0,1,3.482,4.836.207.207,0,0,0,.2.143.129.129,0,0,0,.059-.012.2.2,0,0,0,.143-.25C38.217,74.326,36.446,73.138,34.2,71.64Zm.036.559c-.3-.2-.606-.4-.9-.606-.511-.333-1.034-.689-1.533-1.046-.38-.273-.713-.547-1.022-.808a8.534,8.534,0,0,1-.677-.57c.226.19.452.38.7.57.891.7,1.889,1.4,2.911,2.091l.25.154c.119.083.226.154.345.226.285.2.547.38.808.582a8.892,8.892,0,0,1,2.127,2.044,12.47,12.47,0,0,0-2.127-2.008C34.818,72.615,34.533,72.4,34.236,72.2Z" transform="translate(-27.636 -65.706)"/></g><g transform="translate(35.088 9.257)"><path class="g" d="M30.221,69.031a16.728,16.728,0,0,1,6.025.891,9.658,9.658,0,0,0-6.536-1.569C30.055,68.7,30.09,69,30.221,69.031Z" transform="translate(-29.491 -68.116)"/><path class="a" d="M36.364,69.754a9.423,9.423,0,0,0-5.692-1.6c-.273,0-.582,0-.879.024h-.059a.2.2,0,0,0-.154.083c-.012.012-.024.036-.036.048a.218.218,0,0,0,.048.238,1.729,1.729,0,0,1,.321.428.561.561,0,0,0,.273.3.177.177,0,0,0,.071.012h.559a3.225,3.225,0,0,1,.333.012,14.429,14.429,0,0,1,5.05.867.2.2,0,0,0,.083.012h.012a.213.213,0,0,0,.214-.214A.219.219,0,0,0,36.364,69.754Zm-5.775-.915c-.107,0-.2.012-.261.012a.3.3,0,0,0-.048-.083,1.062,1.062,0,0,0-.107-.19h.083a10.652,10.652,0,0,1,4.088.582,21.134,21.134,0,0,0-3.684-.321Z" transform="translate(-29.526 -68.15)"/></g><g transform="translate(38.432 2.372)"><path class="g" d="M32.52,62.54s4.5,3.731,6.167,6.488,5.846,6.666,7.831,6.488a17.261,17.261,0,0,1-6.167-5.668c-1.176-2.068-2.971-5.038-4.682-6.215Z" transform="translate(-32.306 -62.322)"/><path class="a" d="M46.671,75.349a23.313,23.313,0,0,1-3.482-2.519c-.131-.107-.261-.226-.38-.333s-.226-.214-.321-.309l-.309-.309c-.071-.083-.143-.154-.214-.226l-.214-.25a10.056,10.056,0,0,1-1.176-1.64,26.956,26.956,0,0,0-3.862-5.549,2.9,2.9,0,0,0-.345-.321,5.435,5.435,0,0,0-.428-.345l-.107-.071c-.024-.012-.036-.024-.059-.024l-2.745-.939c-.012,0-.024-.012-.036-.012l-.368-.131a.193.193,0,0,0-.238.071c-.012,0-.012.012-.024.024a.2.2,0,0,0,.024.226c0,.024.024.036.036.048s.535.452,1.3,1.129v.012c.154.131.321.285.5.44s.345.333.523.511c.261.238.535.5.808.772l.44.44c.143.143.285.3.428.452a16.2,16.2,0,0,1,2.127,2.674c1.569,2.591,5.668,6.583,7.878,6.583h.154a.23.23,0,0,0,.19-.166A.248.248,0,0,0,46.671,75.349Zm-7.76-6.4a21.75,21.75,0,0,0-3.006-3.6c-.356-.345-.7-.689-1.034-1-.452-.416-.856-.8-1.2-1.093a1.182,1.182,0,0,0-.131-.119l2.068.713c.048.036.083.059.131.1,1.628,1.212,3.327,4,4.468,6.025a10.665,10.665,0,0,0,1.5,2.02c.178.19.368.392.559.582h.012a21,21,0,0,0,3.208,2.543C43.439,74.3,40.349,71.32,38.911,68.944Z" transform="translate(-32.34 -62.356)"/></g><g transform="translate(47.573 11.417)"><path class="g" d="M40.755,70.875s6.666,1.533,10.136,5.668A14.515,14.515,0,0,0,40.22,70.15Z" transform="translate(-39.997 -69.934)"/><path class="a" d="M51.093,76.459A14.643,14.643,0,0,0,40.3,69.97h-.036a.2.2,0,0,0-.178.083c-.012,0-.024.012-.036.024a.239.239,0,0,0,.024.238l.178.238.356.487a.235.235,0,0,0,.131.071.382.382,0,0,0,.071.024h.012c.083.024.226.059.416.119.131.036.309.083.5.143,1.973.606,6.429,2.234,9.007,5.324a.235.235,0,0,0,.166.071.24.24,0,0,0,.131-.036A.236.236,0,0,0,51.093,76.459ZM40.707,70.446h.024a14.606,14.606,0,0,1,7.926,3.791,24.447,24.447,0,0,0-7.617-3.482.961.961,0,0,1-.131-.036Z" transform="translate(-40.033 -69.968)"/></g><g transform="translate(51.198 6.084)"><path class="g" d="M44.2,66.42s6.809.713,10.029,4.218C51.079,66.99,45.922,65.41,43.26,65.7Z" transform="translate(-43.049 -65.446)"/><path class="a" d="M54.416,70.53a15.16,15.16,0,0,0-10.469-5.05,4.891,4.891,0,0,0-.606.036H43.27a.185.185,0,0,0-.154.1c-.012.024-.012.036-.024.059a.2.2,0,0,0,.071.226l.939.713a.151.151,0,0,0,.107.048.38.38,0,0,1,.083.012H44.3c.071.012.19.024.345.048,1.545.226,6.785,1.2,9.447,4.1a.235.235,0,0,0,.166.071.247.247,0,0,0,.143-.059A.207.207,0,0,0,54.416,70.53ZM43.888,65.908h.059a14.089,14.089,0,0,1,6.5,1.961,23.856,23.856,0,0,0-6.132-1.64Z" transform="translate(-43.082 -65.48)"/></g><g transform="translate(39.811 3.683)"><path class="g" d="M33.68,63.64a25.965,25.965,0,0,1,2.935,6.524c1,3.577,3.8,6.524,4.088,8.746s.927,5.87,2.935,7.451c-1.794-3.874-2.008-4.088-2.579-8.164-.642-3.945-1.866-3.577-3.006-6.524s-1.794-4.8-2.721-6.738Z" transform="translate(-33.466 -63.426)"/><path class="a" d="M43.862,86.287l-.4-.856A18.375,18.375,0,0,1,41.3,78.183a.071.071,0,0,0-.012-.048c-.012-.107-.036-.214-.048-.321s-.048-.214-.059-.309c-.059-.25-.107-.475-.166-.689q-.053-.2-.107-.357c-.036-.119-.071-.238-.107-.345A7.4,7.4,0,0,0,39.62,74a9.257,9.257,0,0,1-1.331-2.389c-.309-.761-.57-1.45-.82-2.091-.452-1.2-.856-2.246-1.271-3.232-.071-.178-.154-.368-.238-.547-.083-.2-.178-.4-.273-.606-.048-.1-.083-.178-.131-.273a.315.315,0,0,0-.059-.071l-.844-.654-.808-.63a.2.2,0,0,0-.226-.024c-.024,0-.036.012-.059.024a.2.2,0,0,0-.059.154v.012a.214.214,0,0,0,.024.119,25.47,25.47,0,0,1,2.911,6.452,21.582,21.582,0,0,0,2.388,5.027,11.686,11.686,0,0,1,1.7,3.684c.178,1.438.737,5.811,3.006,7.593a.228.228,0,0,0,.143.048.179.179,0,0,0,.131-.048A.2.2,0,0,0,43.862,86.287Zm-2.911-7.379a11.609,11.609,0,0,0-1.759-3.862,21.528,21.528,0,0,1-2.341-4.908,25.222,25.222,0,0,0-2.329-5.514l-.036-.071.7.547c.048.1.1.2.143.3.606,1.307,1.117,2.638,1.735,4.278.25.642.511,1.331.82,2.1a9.918,9.918,0,0,0,1.39,2.472,6.957,6.957,0,0,1,1.188,2.21l.012.012c.107.368.214.784.321,1.283.024.154.059.321.083.487a18.177,18.177,0,0,0,2.02,7C41.509,83.269,41.093,80.073,40.951,78.908Z" transform="translate(-33.5 -63.46)"/></g><g transform="translate(46.76 16.29)"><path class="g" d="M39.673,75.474a28.576,28.576,0,0,1,5.656,5.656c-1.58-3.945-5.8-6.88-5.8-6.88Z" transform="translate(-39.314 -74.034)"/><path class="a" d="M39.695,74.118l-.012-.012a.221.221,0,0,0-.226-.012h-.012a.219.219,0,0,0-.1.214l.012.154.012.012.119,1.046a.185.185,0,0,0,.083.154s.048.036.119.083.143.119.25.2a2.467,2.467,0,0,1,.238.178,27.261,27.261,0,0,1,5,5.145.211.211,0,0,0,.273.071.233.233,0,0,0,.107-.273C43.985,77.16,39.945,74.284,39.695,74.118Zm.214,1.271-.083-.642c.024.024.048.036.083.071A20.067,20.067,0,0,1,44.1,79.239a31.986,31.986,0,0,0-4.028-3.731A1.24,1.24,0,0,1,39.909,75.389Z" transform="translate(-39.348 -74.069)"/></g><g transform="translate(39.228 12.846)"><path class="g" d="M33.844,71.645a21.357,21.357,0,0,0,1.5,6.738C33.546,75.8,33.19,71.36,33.19,71.36Z" transform="translate(-32.976 -71.134)"/><path class="a" d="M35.553,78.264a20.137,20.137,0,0,1-1.4-5.87c-.024-.107-.024-.214-.036-.3-.012-.131-.012-.226-.012-.3a.022.022,0,0,1,0-.036.538.538,0,0,1-.012-.1.223.223,0,0,0-.131-.19l-.642-.285c-.012,0-.012-.012-.024-.012a.151.151,0,0,0-.071-.012.211.211,0,0,0-.119.048.16.16,0,0,0-.071.083v.012a.224.224,0,0,0-.024.1,1,1,0,0,1,.012.143c.083.772.535,4.611,2.186,6.987a.2.2,0,0,0,.166.1h.012a.223.223,0,0,0,.214-.226A.228.228,0,0,0,35.553,78.264ZM33.5,71.895c0-.059-.012-.107-.012-.154l.178.083c0,.048.012.107.012.19a23.76,23.76,0,0,0,.368,2.721A21.323,21.323,0,0,1,33.5,71.895Z" transform="translate(-33.01 -71.17)"/></g><g transform="translate(45.336 0.392)"><path class="g" d="M39.649,64.242s1.2-.713,2.8-1.485a17.832,17.832,0,0,1,6.987-1.26c-2.293-1.2-4.3-.452-7.094.63a28.643,28.643,0,0,0-4.016,1.83Z" transform="translate(-38.116 -60.654)"/><path class="a" d="M49.546,61.308a5.36,5.36,0,0,0-2.507-.618A13.834,13.834,0,0,0,42.3,61.95,25.394,25.394,0,0,0,38.3,63.78l-.048.024a.179.179,0,0,0-.107.166v.048a.252.252,0,0,0,.166.178l1.319.285h.048a.16.16,0,0,0,.107-.024.147.147,0,0,1,.036-.024q.071-.036.25-.143c.452-.25,1.39-.772,2.507-1.319a15.76,15.76,0,0,1,3.755-1.022A2.014,2.014,0,0,1,46.6,61.9a1.972,1.972,0,0,1,.261-.036c.071-.012.143-.024.2-.036l.25-.036a2.321,2.321,0,0,1,.273-.024,10.457,10.457,0,0,1,1.271-.083,2.359,2.359,0,0,1,.57.048h.059a.213.213,0,0,0,.214-.214A.228.228,0,0,0,49.546,61.308Zm-2.353.071c-.3.036-.618.083-.939.143a.012.012,0,0,1-.012.012,15.74,15.74,0,0,0-3.85,1.058c-1.367.654-2.46,1.283-2.745,1.45L38.97,63.9a32.474,32.474,0,0,1,3.482-1.545,13.413,13.413,0,0,1,4.587-1.236,4.761,4.761,0,0,1,1.236.154C47.942,61.3,47.573,61.332,47.193,61.379Z" transform="translate(-38.15 -60.69)"/></g><g transform="translate(53.36 1.069)"><path class="g" d="M45.827,61.44s3.208,4.064,8.08,3.838c-3.208.57-5.906-.749-8.817-3.719A4.4,4.4,0,0,1,45.827,61.44Z" transform="translate(-44.867 -61.226)"/><path class="a" d="M53.919,65.1c-3.9.2-6.738-2.5-7.605-3.434-.083-.083-.143-.154-.19-.2-.059-.071-.1-.119-.1-.119a.281.281,0,0,0-.107-.071.089.089,0,0,0-.059-.012,4.432,4.432,0,0,0-.8.119.177.177,0,0,0-.083.036.012.012,0,0,1-.012.012.259.259,0,0,0-.059.1.243.243,0,0,0,0,.131.191.191,0,0,0,.048.083l.107.107c2.614,2.638,4.92,3.814,7.427,3.814a8.931,8.931,0,0,0,1.474-.131.219.219,0,0,0,.178-.238A.21.21,0,0,0,53.919,65.1Zm-8.33-3.339-.036-.036a1.959,1.959,0,0,0,.214-.036c.012.012.024.024.024.036a11.827,11.827,0,0,0,3.862,2.923A13.258,13.258,0,0,1,45.589,61.759Z" transform="translate(-44.903 -61.26)"/></g></g><g transform="translate(6.696 67.353)"><path class="g" d="M53.018,72c-.784-2.519-2.674-5.122-10.386-6.845-.44-.1-.867-.2-1.271-.321-.19-.048-.368-.1-.547-.154a19.542,19.542,0,0,1-2.852-1.022c-.2-.083-.392-.178-.582-.273-3.173-1.569-3.957-3.351-4.349-4.29-.547-1.343-1.022.784-1.331,4a17.711,17.711,0,0,0,.2,4.183c.048.321.107.642.178.951a6.214,6.214,0,0,0,.143.642.071.071,0,0,0,.012.048,3.8,3.8,0,0,0,.119.5,45.839,45.839,0,0,0,2.959,8.009c.4.879.761,1.64,1.046,2.353.19.44.345.867.487,1.3l.143.463c.036.154.083.3.119.452a23.529,23.529,0,0,1,.416,6.761c.154-3.933-1.735-8.259-4.016-13.38-.083-.19-.166-.38-.261-.57V74.8a2.216,2.216,0,0,0-.119-.238.239.239,0,0,0-.048-.1v-.012a.044.044,0,0,0-.012-.036c-.226-.463-.452-.9-.665-1.343-.036-.071-.071-.143-.1-.2-1.961-3.886-3.814-7.3-3.1-13.618a14.345,14.345,0,0,1-3.969,4.706c-.119.1-.238.2-.368.309l-.642.5a3.865,3.865,0,0,1-.345.273c-1.414,1.093-2.876,2.127-4.147,3.185-3.22,2.674-4.789,8.1-5.193,12.667a15.053,15.053,0,0,1,1.735-8.544c.071-.143.143-.3.214-.44H16.5c.19-.392.4-.8.63-1.176.024-.048.059-.1.083-.143a4.7,4.7,0,0,1,.333-.511c1.747-2.555,5.062-4.575,7.463-7.415a6.149,6.149,0,0,0,.5-.606c.214-.273.416-.559.606-.844a11.128,11.128,0,0,1-8.2,2.163,2.508,2.508,0,0,1-.309-.024h-.012l-.535-.071c-.214-.036-.428-.059-.642-.107a2.65,2.65,0,0,1-.273-.048,2.454,2.454,0,0,1-.261-.048c-1.069-.19-2.163-.416-3.3-.594a9.415,9.415,0,0,0-1.782-.107,1.439,1.439,0,0,0-.226.012c-.226.012-.452.036-.654.059-.024,0-.036.012-.048.012-.083.012-.166.024-.238.036s-.143.024-.2.036a6.392,6.392,0,0,0-3.6,2.044,5.753,5.753,0,0,1,2.959-2.258,2.933,2.933,0,0,1,.345-.119,2.032,2.032,0,0,1,.356-.107.878.878,0,0,1,.166-.048c.119-.036.238-.059.356-.1l.368-.071a8.146,8.146,0,0,1,2.2-.119,41.692,41.692,0,0,0,4.694.594,15.2,15.2,0,0,0,3.719-.5,10.338,10.338,0,0,0,6.559-4.516h6.179a12.324,12.324,0,0,0,9.138,6.952c.463.083.927.19,1.367.309a17.231,17.231,0,0,1,1.676.463,14.872,14.872,0,0,1,4.218,2.08A7.761,7.761,0,0,1,51.306,68.2h.012A6.164,6.164,0,0,1,53.018,72Z" transform="translate(-5.596 -57.328)"/><path class="h" d="M49.09,72c-.784-2.519-2.674-5.122-10.386-6.845-.44-.1-.867-.2-1.271-.321-.19-.048-.368-.1-.547-.154a19.542,19.542,0,0,1-2.852-1.022c-.2-.083-.392-.178-.582-.273C30.279,61.82,29.5,60.037,29.1,59.1c-.547-1.343-1.022.784-1.331,4a17.712,17.712,0,0,0,.2,4.183c.048.321.107.642.178.951a6.213,6.213,0,0,0,.143.642.071.071,0,0,0,.012.048,3.8,3.8,0,0,0,.119.5,45.84,45.84,0,0,0,2.959,8.009c.4.879.761,1.64,1.046,2.353.19.44.345.867.487,1.3l.143.463c.036.154.083.3.119.452a23.529,23.529,0,0,1,.416,6.761c.154-3.933-1.735-8.259-4.016-13.38-.083-.19-.166-.38-.261-.57V74.8a2.217,2.217,0,0,0-.119-.238.214.214,0,0,0-.048-.107.044.044,0,0,0-.012-.036c-.119-.273-.238-.547-.368-.82-.107-.25-.226-.5-.333-.749-.309-.677-.606-1.367-.891-2.056a2.152,2.152,0,0,0-.036-.273c-.131-1.438-.463-2.888-.665-4.3a15,15,0,0,1-.071-3.791c.131-1.248.392-2.484.594-3.719.083-.452.143-.915.2-1.367H29.8a12.324,12.324,0,0,0,9.138,6.952c.463.083.927.19,1.367.309a17.23,17.23,0,0,1,1.676.463,14.871,14.871,0,0,1,4.218,2.08A7.761,7.761,0,0,1,47.379,68.2h.012A6.164,6.164,0,0,1,49.09,72Z" transform="translate(-1.668 -57.328)"/><path class="i" d="M26.116,60.874a14.274,14.274,0,0,1-1.26,1.64c.1-.107.2-.19.3-.3.915-.963,1.771-1.984,2.626-3.006-.048.036-.1.083-.143.119-.131.107-.273.214-.416.309-.285.2-.582.38-.879.559A18.388,18.388,0,0,1,24,61.313a10.986,10.986,0,0,1-6.512.7,36.329,36.329,0,0,1-4.9-.594c-2.424-.2-5.549.772-6.773,2.84,0,0,2.127-2.84,6.773-2.127C17.216,62.846,20.923,64.5,26.116,60.874Z" transform="translate(-5.597 -56.976)"/><path class="a" d="M51.7,68.251c-.071-.083-.143-.166-.226-.25a7.141,7.141,0,0,0-.82-.761h-.012a1.736,1.736,0,0,0-.25-.19A14.4,14.4,0,0,0,46.2,64.923c-.1-.036-.178-.059-.273-.1-.416-.131-.82-.25-1.212-.345a1.254,1.254,0,0,0-.285-.071c-.523-.143-1.022-.25-1.473-.333a12.2,12.2,0,0,1-8.948-6.738h-.487a12.661,12.661,0,0,0,9.352,7.165c2.971.559,7.665,1.973,9.364,5.288-1.283-1.806-3.85-3.577-9.518-4.848-.618-.143-1.2-.285-1.747-.452a19.907,19.907,0,0,1-2.911-1.034c-.012,0-.024-.012-.036-.012-3.589-1.616-4.361-3.494-4.753-4.432-.1-.226-.25-.547-.535-.547-.261,0-.761,0-1.212,4.623a18.348,18.348,0,0,0,.285,4.611c.036.226.071.428.107.582a42.778,42.778,0,0,0,3.244,9.221,34.683,34.683,0,0,1,1.5,3.577c0,.012.012.024.012.036.059.166.107.345.154.511a14.906,14.906,0,0,1,.511,3.137,55.661,55.661,0,0,0-3.589-9.483c-.143-.309-.273-.606-.416-.9a1.234,1.234,0,0,0-.048-.119c-.059-.131-.119-.25-.178-.38-.083-.19-.166-.38-.261-.559-.452-.986-.927-1.9-1.367-2.816a18.393,18.393,0,0,1-2.02-11.194.21.21,0,0,0-.154-.226.129.129,0,0,0-.059-.012.22.22,0,0,0-.2.131,13.223,13.223,0,0,1-3.755,4.4,2.067,2.067,0,0,1-.166.143c-.1.083-.19.154-.3.238-.214.178-.44.356-.665.535-1.2.927-2.448,1.83-3.577,2.757l-.879.713c.582-.547,1.212-1.093,1.842-1.64a25,25,0,0,0,4.789-5.027c.012-.024.024-.036.024-.059a.193.193,0,0,0-.059-.2.216.216,0,0,0-.273-.024,11.085,11.085,0,0,1-6.559,2.21,13.934,13.934,0,0,1-1.58-.1c-.238-.024-.487-.059-.725-.1s-.5-.071-.749-.119a2.433,2.433,0,0,1-.285-.059c-.392-.059-.784-.143-1.188-.214-.737-.143-1.5-.285-2.293-.4a9.6,9.6,0,0,0-1.913-.1,1.016,1.016,0,0,0-.19,0,5.987,5.987,0,0,0-.665.083.329.329,0,0,0-.107.012.8.8,0,0,0-.166.024c.059-.012.119-.036.178-.048a2.433,2.433,0,0,1,.285-.059c.012-.012.012-.012.024-.012s.012-.012.024,0a3.312,3.312,0,0,1,.452-.083,7.1,7.1,0,0,1,2.044-.107,16.926,16.926,0,0,1,1.782.261,15.346,15.346,0,0,0,2.9.333,8.113,8.113,0,0,0,1.058-.059,17.2,17.2,0,0,0,2.745-.463,10.424,10.424,0,0,0,6.75-4.718h-.523a10.176,10.176,0,0,1-6.334,4.3,15.2,15.2,0,0,1-3.7.5,14.049,14.049,0,0,1-2.828-.321c-.57-.107-1.165-.214-1.818-.273-.214-.012-.44-.024-.665-.024a9.052,9.052,0,0,0-1.9.214c-.119.024-.25.048-.368.083s-.25.071-.368.107a.768.768,0,0,0-.154.048c-.119.036-.238.083-.345.119s-.226.083-.333.131a5.823,5.823,0,0,0-2.84,2.27.208.208,0,0,0,.059.285.211.211,0,0,0,.3-.048A6.143,6.143,0,0,1,9.6,62.737a.845.845,0,0,1,.238-.048.746.746,0,0,1,.226-.036.99.99,0,0,1,.261-.036,1.456,1.456,0,0,1,.226-.024,1.364,1.364,0,0,1,.226-.012c.119-.012.25-.012.38-.012a9.843,9.843,0,0,1,1.426.107c.772.119,1.533.273,2.27.416.3.059.594.107.879.166.083.012.178.036.261.048s.178.036.261.048c.273.048.535.1.8.131l.285.036c.107.024.2.036.3.048a15.6,15.6,0,0,0,1.83.119,11.211,11.211,0,0,0,5.858-1.676,29.316,29.316,0,0,1-4.052,4,21.879,21.879,0,0,0-3.862,3.945h-.012c-.1.143-.2.309-.285.463-.012.012-.024.036-.036.048-.1.166-.19.321-.273.487-.143.25-.285.511-.4.761a2.769,2.769,0,0,0-.226.463,3.454,3.454,0,0,0-.214.416,14.845,14.845,0,0,0-1.592,8.306.21.21,0,0,0,.226.19.206.206,0,0,0,.2-.19c.19-2.091,1.081-9.186,5.122-12.525l.939-.772c.939-.784,1.949-1.509,2.947-2.246.1-.071.19-.143.3-.226s.226-.166.345-.261h.012c.1-.083.2-.154.3-.238.119-.083.226-.166.333-.25a15.344,15.344,0,0,0,3.838-4.052c-.44,5.858,1.438,8.817,3.3,12.691.048.1.1.19.143.3s.1.19.143.3c.059.143.131.285.2.44s.131.273.19.416c0,.012.012.024.012.036.048.1.1.19.143.3a3.039,3.039,0,0,0,.131.285c.059.119.107.238.166.368,2.056,4.611,4,8.984,4,12.846,0,.143-.012.285-.012.428a.214.214,0,0,0,.2.226h.012a.2.2,0,0,0,.214-.2v-.012a25.659,25.659,0,0,0-.321-6.369c-.036-.178-.071-.333-.119-.5s-.071-.309-.119-.452a.012.012,0,0,0-.012-.012A4.247,4.247,0,0,0,37.084,81c-.083-.273-.178-.535-.285-.808a4.427,4.427,0,0,0-.178-.452l-.012-.012c-.285-.737-.642-1.509-1.058-2.4a48.083,48.083,0,0,1-2.84-7.522c-.048-.166-.083-.321-.131-.475V69.32c-.083-.333-.154-.677-.226-1.01-.071-.3-.119-.606-.166-.9a17.447,17.447,0,0,1-.238-4.29c.333-3.387.677-4.064.784-4.195a.793.793,0,0,1,.143.25c.38.951,1.153,2.816,4.539,4.456.2.107.428.2.654.3.2.083.4.178.63.261.618.238,1.307.475,2.068.689.166.048.345.1.523.154.143.036.3.071.452.119.285.059.57.131.879.2,7.712,1.735,9.506,4.361,10.231,6.7a.221.221,0,0,0,.25.154.233.233,0,0,0,.178-.238A6.308,6.308,0,0,0,51.7,68.251ZM15.98,73.586a26.724,26.724,0,0,0-1.188,4.254A16.659,16.659,0,0,1,15.98,73.586Z" transform="translate(-5.633 -57.33)"/></g></svg>