<svg xmlns="http://www.w3.org/2000/svg" width="43.66" height="64.448" viewBox="0 0 43.66 64.448"><defs><style>.a{fill:#4e5c08;}.b{fill:#688210;}.c{fill:#769413;}.d{fill:#8fb01b;}.e{fill:#423118;}.f{fill:#594220;}</style></defs><g transform="translate(10.482 0.729)"><g transform="translate(0.715 1.511)"><path class="a" d="M49.415,18.2a2.86,2.86,0,0,1-.067.446,3.786,3.786,0,0,1-.134.379,2.186,2.186,0,0,1-.345.613,2.292,2.292,0,0,1-.434.434,2.973,2.973,0,0,1-.479.279,4.237,4.237,0,0,1-.9.267c-.267.045-.49.067-.624.1a1.621,1.621,0,0,1,.557,1.081,3.38,3.38,0,0,1-.234,1.716,3,3,0,0,1-1.214,1.437,2.373,2.373,0,0,1-.936.3,2.057,2.057,0,0,1-.524,0,2.6,2.6,0,0,1-.557-.111,4.16,4.16,0,0,1,.167,1.014,2.321,2.321,0,0,1-.111.735,1.114,1.114,0,0,1-.279.479.859.859,0,0,1-.39.245.977.977,0,0,1-.434.056,1.437,1.437,0,0,1-.434-.089,2.616,2.616,0,0,1-.724-.4,2.341,2.341,0,0,1,.067.88,2.75,2.75,0,0,1-.234.836,2.706,2.706,0,0,1-1.27,1.248,1.466,1.466,0,0,1-.434.167,3.353,3.353,0,0,1-.457.1,2.778,2.778,0,0,1-.958-.089,2.288,2.288,0,0,1-.9-.468,3.1,3.1,0,0,1-.769-.869,7.909,7.909,0,0,1-.234,1.136,3.364,3.364,0,0,1-.5,1.047,2.181,2.181,0,0,1-.947.735,2.879,2.879,0,0,1-.68.178,3.474,3.474,0,0,1-.824-.022c-.145-.022-.29-.045-.423-.078s-.256-.089-.368-.134a1.474,1.474,0,0,1-.323-.167,2.265,2.265,0,0,1-.969-1.114,4,4,0,0,1-.245-.914,5.336,5.336,0,0,0-.1-.613,1.012,1.012,0,0,1-.423.334,2.149,2.149,0,0,1-.668.2,3.427,3.427,0,0,1-.824-.011,3.41,3.41,0,0,1-.88-.245,2.871,2.871,0,0,1-1.415-1.225,2.448,2.448,0,0,1-.167-2.016,4.1,4.1,0,0,1-1.014.145,2.125,2.125,0,0,1-.746-.1,1.289,1.289,0,0,1-.468-.29,2.231,2.231,0,0,1-.156-.178,1.715,1.715,0,0,1-.089-.212,1.37,1.37,0,0,1,.045-.869,2.393,2.393,0,0,1,.4-.713,2.624,2.624,0,0,1-2.429-.68,2.9,2.9,0,0,1-.3-.345,2.78,2.78,0,0,1-.234-.39,3.477,3.477,0,0,1-.167-.434,2.087,2.087,0,0,1-.1-.457,2.48,2.48,0,0,1,.067-.947,2.893,2.893,0,0,1,.446-.914,3.661,3.661,0,0,1,.858-.78,4.781,4.781,0,0,1-2.195-.68,1.608,1.608,0,0,1-.434-.39,2.034,2.034,0,0,1-.334-.512,2.464,2.464,0,0,1-.2-.668c-.011-.123-.033-.245-.033-.39a2.841,2.841,0,0,1,.022-.423,2.76,2.76,0,0,1,.178-.78,2.2,2.2,0,0,1,.323-.6,2.412,2.412,0,0,1,.88-.724,7.209,7.209,0,0,1,1.5-.434,1.553,1.553,0,0,1-.6-1.047,3.292,3.292,0,0,1,.123-1.716,2.88,2.88,0,0,1,1.114-1.5,2.378,2.378,0,0,1,.9-.368,2.8,2.8,0,0,1,1.092.045,2.932,2.932,0,0,1-.145-1.749,1.612,1.612,0,0,1,.111-.279,1.129,1.129,0,0,1,.156-.223.983.983,0,0,1,.379-.267,1.212,1.212,0,0,1,.446-.078,2.078,2.078,0,0,1,.446.078,2.467,2.467,0,0,1,.724.379,2.559,2.559,0,0,1-.078-.869,2.249,2.249,0,0,1,.245-.847,2.633,2.633,0,0,1,1.326-1.27,2.754,2.754,0,0,1,.936-.234,2.386,2.386,0,0,1,.49.011,1.843,1.843,0,0,1,.49.111,3.338,3.338,0,0,1,.457.2,2.756,2.756,0,0,1,.423.312,2.809,2.809,0,0,1,.7.914h.011a8.179,8.179,0,0,1,.312-1.1,4.71,4.71,0,0,1,.256-.535,2.691,2.691,0,0,1,.323-.468,2.277,2.277,0,0,1,1-.668,2.9,2.9,0,0,1,1.5-.056,4.3,4.3,0,0,1,.758.267,2.562,2.562,0,0,1,.546.4,2.376,2.376,0,0,1,.624.947,7.186,7.186,0,0,1,.267,1.537,1.6,1.6,0,0,1,1.092-.5c.134-.011.267-.022.4-.022s.267.022.412.033a3.414,3.414,0,0,1,.858.245c.145.067.279.134.423.212a2.9,2.9,0,0,1,.368.279,3.126,3.126,0,0,1,.345.323,2.411,2.411,0,0,1,.267.39,2.941,2.941,0,0,1,.2.423,3.471,3.471,0,0,1,.1.49,2.62,2.62,0,0,1-.089,1.081,4.223,4.223,0,0,1,1-.189,2.121,2.121,0,0,1,.735.067,2.074,2.074,0,0,1,.279.111,1.418,1.418,0,0,1,.212.145,1,1,0,0,1,.256.368,1.154,1.154,0,0,1,.078.434,2.078,2.078,0,0,1-.078.446,2.441,2.441,0,0,1-.356.724,2.586,2.586,0,0,1,1.3-.056,1.757,1.757,0,0,1,.412.123,2.7,2.7,0,0,1,1.337,1.159,2.606,2.606,0,0,1,.323.88,2.525,2.525,0,0,1-.011.958,2.934,2.934,0,0,1-1.2,1.76,8.229,8.229,0,0,1,1.136.167,3.172,3.172,0,0,1,1.081.446,2.865,2.865,0,0,1,.446.39,2.017,2.017,0,0,1,.334.535,2.716,2.716,0,0,1,.212.7A3.054,3.054,0,0,1,49.415,18.2Z" transform="translate(-19.28 -2.007)"/></g><g transform="translate(0.11)"><path class="b" d="M48.084,15.667a3.8,3.8,0,0,1-.145.813,3.373,3.373,0,0,1-.356.724,2.882,2.882,0,0,1-.457.5,2.292,2.292,0,0,1-1.025.446,6.545,6.545,0,0,1-1.549-.022,1.5,1.5,0,0,1,.323,1.125c-.011.123-.022.245-.045.379s-.067.256-.1.379a3.057,3.057,0,0,1-.39.758,2.016,2.016,0,0,1-.279.334,2.068,2.068,0,0,1-.323.3,2.5,2.5,0,0,1-.791.39,2.862,2.862,0,0,1-.446.078,2.232,2.232,0,0,1-.468-.022,2.63,2.63,0,0,1-.49-.123,4.244,4.244,0,0,1-.512-.245,3,3,0,0,1-.189,1.671.884.884,0,0,1-.713.535,1.86,1.86,0,0,1-1.415-.735,2.677,2.677,0,0,1-.033.847,2.478,2.478,0,0,1-.312.769,2.362,2.362,0,0,1-1.248,1.025c-.134.045-.267.078-.412.111-.134.011-.279.022-.423.022a2.4,2.4,0,0,1-.858-.2,2.447,2.447,0,0,1-.791-.557,3.057,3.057,0,0,1-.624-.925H34a7.654,7.654,0,0,1-.29,1.1,3.188,3.188,0,0,1-.524,1,1.988,1.988,0,0,1-.9.68,2.886,2.886,0,0,1-.646.134,1.9,1.9,0,0,1-.356,0,2.906,2.906,0,0,1-1.1-.3,2.083,2.083,0,0,1-.524-.368,2.144,2.144,0,0,1-.345-.457,2.665,2.665,0,0,1-.223-.479,4.219,4.219,0,0,1-.167-.9c-.033-.267-.033-.49-.067-.613a1.13,1.13,0,0,1-.4.345,2.413,2.413,0,0,1-.624.2,3.1,3.1,0,0,1-1.56-.189,2.575,2.575,0,0,1-1.3-1.125,2.414,2.414,0,0,1-.123-1.95,4.143,4.143,0,0,1-.969.212,2.018,2.018,0,0,1-.713-.067,1.273,1.273,0,0,1-.457-.245.68.68,0,0,1-.134-.178.591.591,0,0,1-.089-.189,1.078,1.078,0,0,1-.045-.423,1.8,1.8,0,0,1,.1-.423,2.6,2.6,0,0,1,.423-.691,2.813,2.813,0,0,1-.858.089,2.6,2.6,0,0,1-.813-.223,2.435,2.435,0,0,1-1.181-1.225,2.378,2.378,0,0,1-.045-1.794,2.2,2.2,0,0,1,.223-.423,3.527,3.527,0,0,1,.312-.4,3.518,3.518,0,0,1,.947-.635,4.629,4.629,0,0,1-2.094-.891l-.2-.2c-.056-.078-.123-.156-.167-.234a1.822,1.822,0,0,1-.256-.557,2.558,2.558,0,0,1,.033-1.471A2.464,2.464,0,0,1,19.62,9.93a1.864,1.864,0,0,1,.49-.323,2.493,2.493,0,0,1,.512-.167,3.412,3.412,0,0,1,.925-.067c.267.011.49.033.624.022a1.1,1.1,0,0,1-.279-.457,1.988,1.988,0,0,1-.1-.657,3.092,3.092,0,0,1,.479-1.537,2.566,2.566,0,0,1,1.359-1.081,2.429,2.429,0,0,1,1.927.256,5.072,5.072,0,0,1-.022-.991,2.059,2.059,0,0,1,.189-.68,1.071,1.071,0,0,1,.312-.4.782.782,0,0,1,.39-.156,1.271,1.271,0,0,1,.813.2,2.4,2.4,0,0,1,.613.524,2.517,2.517,0,0,1,.356-1.638,2.427,2.427,0,0,1,1.3-1.014,2.821,2.821,0,0,1,.869-.111,2.407,2.407,0,0,1,.858.234,2.583,2.583,0,0,1,.769.59,3.466,3.466,0,0,1,.59.969,8.1,8.1,0,0,1,.345-1.081,3.454,3.454,0,0,1,.579-.98,2.623,2.623,0,0,1,.412-.368,1.841,1.841,0,0,1,.512-.256A2.69,2.69,0,0,1,35.083.65a3.417,3.417,0,0,1,.724.078,2.418,2.418,0,0,1,1.181.657,2.345,2.345,0,0,1,.535.936,8,8,0,0,1,.2,1.515,1.564,1.564,0,0,1,1.036-.524,1.878,1.878,0,0,1,.368-.033,2.356,2.356,0,0,1,.39.022,2.737,2.737,0,0,1,.4.067,2.3,2.3,0,0,1,.39.134A2.621,2.621,0,0,1,41.6,4.616a2.177,2.177,0,0,1,.256.88,2.771,2.771,0,0,1-.123,1.058,3.642,3.642,0,0,1,.958-.223,2.373,2.373,0,0,1,.39-.011,1.394,1.394,0,0,1,.323.056,1.033,1.033,0,0,1,.457.223.9.9,0,0,1,.234.356,1.27,1.27,0,0,1-.033.836,2.414,2.414,0,0,1-.39.713,2.477,2.477,0,0,1,.847-.123,2.593,2.593,0,0,1,.423.045,2.822,2.822,0,0,1,.4.134,3,3,0,0,1,.379.189,2.512,2.512,0,0,1,.334.267,2.187,2.187,0,0,1,.524.7,1.765,1.765,0,0,1,.167.423,2.868,2.868,0,0,1,.089.446,3.283,3.283,0,0,1-.011.468,2.413,2.413,0,0,1-.1.457A2.632,2.632,0,0,1,45.3,13.038a4.293,4.293,0,0,1,2.094.891,2.166,2.166,0,0,1,.624,1.036A3.415,3.415,0,0,1,48.084,15.667Z" transform="translate(-18.737 -0.65)"/></g><g transform="translate(0 3.047)"><path class="c" d="M45.444,11.378a2.712,2.712,0,0,1-.078.613A2.134,2.134,0,0,1,44.787,13a1.947,1.947,0,0,1-.468.323,1.9,1.9,0,0,1-.557.167,2.921,2.921,0,0,1,.312.479,3.282,3.282,0,0,1,.2.468,3.606,3.606,0,0,1,.078.434,2.215,2.215,0,0,1-.011.39,1.479,1.479,0,0,1-.067.334,1.5,1.5,0,0,1-.134.267,1.176,1.176,0,0,1-.813.535,1.647,1.647,0,0,1-.468-.011,2.373,2.373,0,0,1-.78-.279,2.488,2.488,0,0,1,.011,1.749,2.885,2.885,0,0,1-1.147,1.4,2.642,2.642,0,0,1-1.794.4,3.072,3.072,0,0,1-1.872-1.036,5.1,5.1,0,0,1-.312,2.273,2.459,2.459,0,0,1-2.15,1.415,2.9,2.9,0,0,1-1.493-.223,2.651,2.651,0,0,1-.891-.724,8.649,8.649,0,0,1-.746-1.381,1.209,1.209,0,0,1-.312.446,2.684,2.684,0,0,1-.59.368,3.286,3.286,0,0,1-.791.234,3.446,3.446,0,0,1-.9.033,3.005,3.005,0,0,1-1.727-.7,2.45,2.45,0,0,1-.334-.345,3.376,3.376,0,0,1-.267-.423,2.85,2.85,0,0,1-.279-1.058,3.131,3.131,0,0,1-1.626.668,1.222,1.222,0,0,1-.557-.089,1.27,1.27,0,0,1-.212-.111.75.75,0,0,1-.167-.156,1.361,1.361,0,0,1-.223-.39,2.078,2.078,0,0,1-.078-.446,2.393,2.393,0,0,1,.1-.824,2.412,2.412,0,0,1-.8.379,2.638,2.638,0,0,1-.891.067,2.774,2.774,0,0,1-1.716-.869l-.167-.2a2.7,2.7,0,0,1-.156-.223,2.284,2.284,0,0,1-.256-.5,2.607,2.607,0,0,1-.1-.267c-.022-.089-.045-.189-.067-.29s-.022-.189-.033-.279a1.358,1.358,0,0,1,0-.3,2.535,2.535,0,0,1,.022-.29c.022-.1.045-.189.067-.29s.067-.189.1-.279.089-.178.145-.256a2.088,2.088,0,0,1,.9-.791,3.55,3.55,0,0,1-1.069-.49,2.282,2.282,0,0,1-.824-.947,1.5,1.5,0,0,1-.134-.334,2.647,2.647,0,0,1-.078-.345,2.7,2.7,0,0,1,.011-.791,3.378,3.378,0,0,1,.791-1.671,2.882,2.882,0,0,1,1.359-.936A2.278,2.278,0,0,1,22,7.234a7.175,7.175,0,0,1,1.471.6.979.979,0,0,1-.022-.546,2.234,2.234,0,0,1,.234-.657,3.548,3.548,0,0,1,1.2-1.248,2.976,2.976,0,0,1,1.816-.479,2.4,2.4,0,0,1,.947.256,2.857,2.857,0,0,1,.847.691,4.446,4.446,0,0,1,.423-.947,2.558,2.558,0,0,1,.479-.568,1.123,1.123,0,0,1,.958-.279,1.3,1.3,0,0,1,.4.178,1.765,1.765,0,0,1,.334.312,2.359,2.359,0,0,1,.423.7,2.583,2.583,0,0,1,1.849-1.76,2.844,2.844,0,0,1,.925-.1,2.7,2.7,0,0,1,1.7.746A3.09,3.09,0,0,1,36.866,6.1a10.832,10.832,0,0,1,.724-.914,3.736,3.736,0,0,1,.891-.724,2.471,2.471,0,0,1,2.562.156A2.843,2.843,0,0,1,42.1,5.686a2.527,2.527,0,0,1,.234.579,3.069,3.069,0,0,1,.078.546,3.7,3.7,0,0,1-.022.512,4.5,4.5,0,0,1-.089.446c-.056.267-.123.479-.145.613a1.259,1.259,0,0,1,.535-.134,2.334,2.334,0,0,1,.724.134A3.158,3.158,0,0,1,44.931,9.64a3.319,3.319,0,0,1,.279.524,3.879,3.879,0,0,1,.178.59.752.752,0,0,1,.022.156.752.752,0,0,1,.022.156A2.918,2.918,0,0,1,45.444,11.378Z" transform="translate(-18.639 -3.385)"/></g><g transform="translate(1.135 3.863)"><path class="d" d="M44.381,13.033a1.768,1.768,0,0,1-.067.423,1.188,1.188,0,0,1-.078.212c-.033.067-.078.123-.111.189s-.1.111-.145.167a1.775,1.775,0,0,0-.145.145,1.56,1.56,0,0,1-.178.111.888.888,0,0,1-.178.089,1.359,1.359,0,0,1-.189.078c-.067.011-.134.033-.2.045a1.552,1.552,0,0,1-.39.045,1.5,1.5,0,0,1-.39-.022,2.273,2.273,0,0,1-.657-.167,4.793,4.793,0,0,1,.724,1.159,1.033,1.033,0,0,1-.089.88,1.059,1.059,0,0,1-.167.223,1.854,1.854,0,0,1-.267.2,1.779,1.779,0,0,1-.356.167,2.455,2.455,0,0,1-.457.134c-.178.033-.345.056-.512.078a2.627,2.627,0,0,1-.512.011,3.945,3.945,0,0,1-.914-.111,4.563,4.563,0,0,1-.78-.267,3.285,3.285,0,0,1-.6-.39,2.916,2.916,0,0,1-.769-.991,2.441,2.441,0,0,1-.189-.546,4.869,4.869,0,0,1-.134-.546c-.579,1.549-1.56,2.128-2.429,2.016a2.483,2.483,0,0,1-1.927-2.028,2.055,2.055,0,0,1-.858,1.259c-.423.189-.969-.089-1.571-1.471a2.191,2.191,0,0,1-2.607,1.493.262.262,0,0,1-.089-.022l-.045-.011a.483.483,0,0,0-.056-.011c-.089-.022-.178-.045-.256-.067-.167-.056-.323-.111-.479-.178a2.613,2.613,0,0,1-.7-.434.821.821,0,0,1-.323-.947c-.145.089-.368.256-.657.446a5.424,5.424,0,0,1-1.114.568,4.582,4.582,0,0,1-.724.212c-.134.022-.267.045-.412.067s-.267.011-.412.011a2.839,2.839,0,0,1-.434-.022,3.106,3.106,0,0,1-.423-.078,2.42,2.42,0,0,1-.4-.134c-.067-.033-.134-.056-.189-.089a.962.962,0,0,1-.178-.111,1.621,1.621,0,0,1-.5-.49.842.842,0,0,1-.123-.245.973.973,0,0,1-.056-.245,1.394,1.394,0,0,1,.267-.88,2.558,2.558,0,0,1,.334-.368,3,3,0,0,1,.412-.334c.156-.1.3-.189.468-.279s.334-.167.49-.245a2.534,2.534,0,0,1-.958-.356,1.558,1.558,0,0,1-.512-.579,1.242,1.242,0,0,1,.245-1.359A3.087,3.087,0,0,1,22.156,8.5a4.11,4.11,0,0,1,2.206.156,1.546,1.546,0,0,1-.4-.613.7.7,0,0,1,.134-.713,1.288,1.288,0,0,1,1.025-.368,2.3,2.3,0,0,1,.813.167,2.386,2.386,0,0,1,.836.557,2.417,2.417,0,0,1,.68-1.716,2.177,2.177,0,0,1,1.393-.59,2.544,2.544,0,0,1,1.381.334,1.465,1.465,0,0,1,.746.824,7.961,7.961,0,0,1,.579-1.393,2.136,2.136,0,0,1,.713-.735,2.06,2.06,0,0,1,1.192-.29,2.031,2.031,0,0,1,1.159.4,1.769,1.769,0,0,1,.624.836,5.65,5.65,0,0,1,.256,2.217,3.826,3.826,0,0,1,.758-.813,2.432,2.432,0,0,1,.8-.423,1.908,1.908,0,0,1,1.493.134,2.092,2.092,0,0,1,.568.468l.078.078c.022.022.045.056.078.089a2.334,2.334,0,0,1,.156.189,2.684,2.684,0,0,1,.256.4,1.734,1.734,0,0,1,.178.791,1.363,1.363,0,0,1-.256.735,2.986,2.986,0,0,1,.9-.267,2.057,2.057,0,0,1,1.069.111A1.273,1.273,0,0,1,42,9.345a.762.762,0,0,1,.212.434.82.82,0,0,1-.123.535,1.626,1.626,0,0,1-.223.279,2.191,2.191,0,0,1-.334.267,3.757,3.757,0,0,1,2.317.958,1.273,1.273,0,0,1,.167.189l.134.2a.677.677,0,0,1,.1.2.746.746,0,0,1,.078.2,1.81,1.81,0,0,1,.045.212A1.422,1.422,0,0,1,44.381,13.033Z" transform="translate(-19.657 -4.118)"/></g></g><g transform="translate(13.102 17.852)"><path class="e" d="M35.885,41.019a14.281,14.281,0,0,1-6.317,6.473c.033-1.27.089-2.106.189-3.52.713-10.249-1.114-22.37-1.214-27.951-.045,4.434-.267,19.652-1.192,26.637,0,0-2.852-.991-6.361-9A71.752,71.752,0,0,0,26.148,45.4s-.657,12.176-2.083,17.123c0,0,4.278.434,6.473-.546a61.5,61.5,0,0,1-.98-12.277C31.206,48.65,33.913,46.255,35.885,41.019Z" transform="translate(-20.99 -16.02)"/><path class="f" d="M25.025,60.7S26.6,50.182,26.774,45.013c0,0-.735-1.2-1.482-2.306a35.558,35.558,0,0,1-2.763-5.9c1.1,1.849,1.938,4.8,4.98,6.094.735-3.32.925-15.218,1.014-20.576a162.448,162.448,0,0,1,.279,21.5c-.189,3.788.189,3.877.189,3.877a15.579,15.579,0,0,0,3.966-2.863A13.728,13.728,0,0,1,28.9,48.712c-.457.925-.189,9.313.735,12.266C28.713,61.9,24.847,61.991,25.025,60.7Z" transform="translate(-20.814 -15.302)"/></g><g transform="translate(22.019 31.784)"><g transform="translate(0.059 1.459)"><path class="a" d="M45.638,40.591a3.2,3.2,0,0,1-.68,1.66,3.043,3.043,0,0,1-1.37,1.036,2.747,2.747,0,0,1-.646.123,2.446,2.446,0,0,1-.579-.045,5.416,5.416,0,0,1-1.448-.668.925.925,0,0,1-.022.546,1.848,1.848,0,0,1-.323.646,3.037,3.037,0,0,1-1.526,1.058A3.314,3.314,0,0,1,38,45.1a2.7,2.7,0,0,1-.535-.067,1.723,1.723,0,0,1-.256-.078,1.22,1.22,0,0,1-.256-.1,2.184,2.184,0,0,1-.813-.646,1.6,1.6,0,0,1-.267-.468,2.073,2.073,0,0,1-.156-.546,2.572,2.572,0,0,1-1.638.724,1.122,1.122,0,0,1-.969-.434.993.993,0,0,1-.2-.423,1.253,1.253,0,0,1-.045-.457,2.007,2.007,0,0,1,.212-.791,2.168,2.168,0,0,1-1.749.123,2.688,2.688,0,0,1-1.482-1.292,2.742,2.742,0,0,1-.312-1.025,2.681,2.681,0,0,1,.111-1.069,2.451,2.451,0,0,1,1.582-1.5,6.285,6.285,0,0,1-1.025-.512,2.578,2.578,0,0,1-.468-.379,2.193,2.193,0,0,1-.368-.479,2.241,2.241,0,0,1-.312-1.315,3.435,3.435,0,0,1,.178-.824c.056-.134.134-.279.212-.423a2.606,2.606,0,0,1,.279-.434A2.924,2.924,0,0,1,31.1,31.623a2.217,2.217,0,0,1,1.225-.089,2.814,2.814,0,0,1,.49.156,2.843,2.843,0,0,1,.412.2c.245.134.423.256.546.312a1.023,1.023,0,0,1,.022-.546,1.878,1.878,0,0,1,.134-.312,1.218,1.218,0,0,1,.089-.167,1.892,1.892,0,0,1,.111-.156,2.847,2.847,0,0,1,.646-.613,3.229,3.229,0,0,1,.9-.434,2.921,2.921,0,0,1,2.083.111,2.142,2.142,0,0,1,1.225,1.671,2.491,2.491,0,0,1,1.626-.735,1.13,1.13,0,0,1,.969.423,1.309,1.309,0,0,1,.256.869,2.287,2.287,0,0,1-.2.8,2.189,2.189,0,0,1,1.738-.145,2.709,2.709,0,0,1,1.5,1.281,2.671,2.671,0,0,1,.2,2.106,2.355,2.355,0,0,1-1.582,1.5,5.282,5.282,0,0,1,1.025.535,2.747,2.747,0,0,1,.836.88A2.256,2.256,0,0,1,45.638,40.591Z" transform="translate(-29.047 -29.835)"/></g><g transform="translate(0 0.243)"><path class="b" d="M46.458,34.822a2.191,2.191,0,0,1-1.17,1.537,2.92,2.92,0,0,1-.546.212,3.327,3.327,0,0,1-.579.111,3.255,3.255,0,0,1-.568.045,2.3,2.3,0,0,1,1.014,1.894,2.522,2.522,0,0,1-.836,1.838,2.481,2.481,0,0,1-1.738.668,2.178,2.178,0,0,1-1.56-.691,2.313,2.313,0,0,1-.022.824,1.458,1.458,0,0,1-.167.412.928.928,0,0,1-.29.334,1.054,1.054,0,0,1-1,.123A2.5,2.5,0,0,1,37.7,40.972a2.992,2.992,0,0,1-.29.49,2.3,2.3,0,0,1-.368.368,2.056,2.056,0,0,1-.446.267,2.377,2.377,0,0,1-.479.145,2.767,2.767,0,0,1-1.938-.434,2.935,2.935,0,0,1-1.136-1.348,1.456,1.456,0,0,1-.022-1.2,5.24,5.24,0,0,1-1.537.323,2.175,2.175,0,0,1-1.147-.323,2.825,2.825,0,0,1-1.058-1.292,3.129,3.129,0,0,1-.245-1.771A2.161,2.161,0,0,1,29.658,35a3.342,3.342,0,0,1,2.172-.8,2.581,2.581,0,0,1-.457-.379,2.516,2.516,0,0,1-.334-.457,2.143,2.143,0,0,1-.267-1.036,2.539,2.539,0,0,1,.858-1.883,2.566,2.566,0,0,1,1.771-.657,2.179,2.179,0,0,1,1.549.735,2.048,2.048,0,0,1,.045-.813,1.27,1.27,0,0,1,.468-.746,1.038,1.038,0,0,1,.991-.1,2.545,2.545,0,0,1,1.281,1.181,2.091,2.091,0,0,1,1.571-1.259,2.712,2.712,0,0,1,1.905.39,2.934,2.934,0,0,1,1.159,1.315,1.4,1.4,0,0,1,.056,1.2,5.363,5.363,0,0,1,1.537-.368,2.247,2.247,0,0,1,1.17.323A2.831,2.831,0,0,1,46.235,33,3.2,3.2,0,0,1,46.458,34.822Z" transform="translate(-28.995 -28.744)"/></g><g transform="translate(0.975)"><path class="c" d="M46.5,35.438a3.229,3.229,0,0,1-.88,1.682,1.6,1.6,0,0,1-.3.256.954.954,0,0,1-.267.123,2,2,0,0,1-.557.123,2.377,2.377,0,0,1-.557-.033,3.249,3.249,0,0,1-.546-.134,6.3,6.3,0,0,1-1.047-.446,2.551,2.551,0,0,1,.345,1.983,2.009,2.009,0,0,1-1.069,1.292,2.127,2.127,0,0,1-1.649.111,1.949,1.949,0,0,1-.379-.167,2.433,2.433,0,0,1-.345-.245,2.2,2.2,0,0,1-.5-.68,2.725,2.725,0,0,1-.067.379,1.644,1.644,0,0,1-.145.39,1.351,1.351,0,0,1-.245.356.946.946,0,0,1-.356.234.852.852,0,0,1-.446.045,1.065,1.065,0,0,1-.479-.234,1.762,1.762,0,0,1-.434-.557,2.981,2.981,0,0,1-.279-.947,2.018,2.018,0,0,1-1.315.724,2.192,2.192,0,0,1-.468-.011,2.3,2.3,0,0,1-1.5-.958,2.488,2.488,0,0,1-.468-1.515,1.557,1.557,0,0,1,.134-.624,1.027,1.027,0,0,1,.312-.423c-.134-.011-.345.011-.613.011a2.987,2.987,0,0,1-.434-.022,2.572,2.572,0,0,1-.479-.089,1.78,1.78,0,0,1-.49-.189,2.145,2.145,0,0,1-.457-.345,2.345,2.345,0,0,1-.613-1.292.343.343,0,0,0-.011-.111A.457.457,0,0,0,29.881,34c0-.089-.011-.189-.011-.279,0-.178.022-.345.033-.5a2.866,2.866,0,0,1,.256-.824,1.852,1.852,0,0,1,.936-.914,2.688,2.688,0,0,1,.279-.089,1.329,1.329,0,0,1,.29-.056,2.329,2.329,0,0,1,.279-.011,2.535,2.535,0,0,1,.29.022,4.306,4.306,0,0,1,1.081.3,1.873,1.873,0,0,1-.178-2.005,2.521,2.521,0,0,1,.145-.223,1.273,1.273,0,0,1,.167-.189,1.957,1.957,0,0,1,.412-.323,2.637,2.637,0,0,1,1-.356c.045-.011.089-.011.134-.022h.123a1.34,1.34,0,0,1,.212,0,2.151,2.151,0,0,1,.4.067,2.216,2.216,0,0,1,.379.145,3.4,3.4,0,0,1,.334.212,2.492,2.492,0,0,1,.847,1.37,1.777,1.777,0,0,1,.947-1.214.723.723,0,0,1,.769.234,1.66,1.66,0,0,1,.368.546,3.555,3.555,0,0,1,.3.9,2.292,2.292,0,0,1,1.549-1.025,2.113,2.113,0,0,1,1.549.434,2.42,2.42,0,0,1,.323.267c.067.067.134.134.2.189a2.447,2.447,0,0,1,.156.2,2.421,2.421,0,0,1,.245.379,1.516,1.516,0,0,1,.156.379,1.32,1.32,0,0,1,.045.668.845.845,0,0,1-.223.446,2.535,2.535,0,0,0,.267-.011c.111-.011.234-.011.379-.022a3.526,3.526,0,0,1,.457.033,2.325,2.325,0,0,1,.512.134,1.341,1.341,0,0,1,.256.123,1.673,1.673,0,0,1,.256.167,1.183,1.183,0,0,0,.123.1.378.378,0,0,0,.067.067l.045.056a1.94,1.94,0,0,1,.212.29A2.455,2.455,0,0,1,46.5,35.438Z" transform="translate(-29.87 -28.526)"/></g><g transform="translate(5.442 0.517)"><path class="d" d="M43.65,33.658a1.7,1.7,0,0,1,.089,1.036,2.593,2.593,0,0,1-.49,1.092,3.478,3.478,0,0,1-.925.88,3.2,3.2,0,0,1-1.1.446,2.557,2.557,0,0,1-1,.022,1.247,1.247,0,0,1-1.025-.769c-.089.1-.189.312-.356.535a2.912,2.912,0,0,1-.312.345,2.753,2.753,0,0,1-.434.323,2.143,2.143,0,0,1-1.381.223,3.235,3.235,0,0,1-1.872-1.081c-.078-.078-.145-.167-.212-.245a3.041,3.041,0,0,1-.189-.267,5.8,5.8,0,0,1-.279-.512,3.6,3.6,0,0,1-.267-.98,2.1,2.1,0,0,1,1.348-2.25A3.684,3.684,0,0,1,36.42,32.2a1.591,1.591,0,0,1-.635-.791,1.355,1.355,0,0,1,.022-.958,2.017,2.017,0,0,1,.758-.891,3.4,3.4,0,0,1,1.4-.512c.134-.022.267-.033.4-.056h.4a3.562,3.562,0,0,1,.78.078,3.158,3.158,0,0,1,1.2.479,1.755,1.755,0,0,1,.212.167,2.232,2.232,0,0,1,.156.178.894.894,0,0,1,.189.368.879.879,0,0,1,.033.379,1.191,1.191,0,0,1-.123.368,3.162,3.162,0,0,1,.991-.412,2.4,2.4,0,0,1,.3-.056,2.71,2.71,0,0,1,.3,0,1.564,1.564,0,0,1,.568.111.919.919,0,0,1,.613.858,1.161,1.161,0,0,1-.223.724,2.123,2.123,0,0,1-.836.691A1.569,1.569,0,0,1,43.65,33.658Z" transform="translate(-33.88 -28.99)"/></g></g><g transform="translate(4.486 26.314)"><g transform="translate(1.076 0.205)"><path class="a" d="M28.3,32.155a2.243,2.243,0,0,1-1.047,1.4,2.061,2.061,0,0,1-1.66.2,2.339,2.339,0,0,1,.423.691,2.008,2.008,0,0,1,.089.434,1.1,1.1,0,0,1-.078.423.942.942,0,0,1-.769.579,2.389,2.389,0,0,1-1.638-.423,2.071,2.071,0,0,1-.6,1.838,2.457,2.457,0,0,1-1.693.624,2.74,2.74,0,0,1-1.582-.524,1.423,1.423,0,0,1-.613-1.014,4.342,4.342,0,0,1-1.125,1.081,1.96,1.96,0,0,1-1.181.256,1.558,1.558,0,0,1-.379-.056,2.9,2.9,0,0,1-.4-.145,3.255,3.255,0,0,1-1.794-2.273,2.013,2.013,0,0,1,.234-1.37,2.309,2.309,0,0,1,.847-.824,4.819,4.819,0,0,1,1.047-.457,3.3,3.3,0,0,1-.991-.49,2.8,2.8,0,0,1-.379-.334,2.914,2.914,0,0,1-.267-.379,2,2,0,0,1-.267-.824,2.23,2.23,0,0,1,.078-.858,2.164,2.164,0,0,1,.167-.4,1.556,1.556,0,0,1,.1-.189c.045-.056.089-.123.134-.178a3.839,3.839,0,0,1,.29-.312,3.851,3.851,0,0,1,.345-.245,2.417,2.417,0,0,1,.39-.167,1.281,1.281,0,0,1,.189-.067c.078-.011.145-.022.212-.033a2.475,2.475,0,0,1,.858.045,1.78,1.78,0,0,1-.245-.3,1.939,1.939,0,0,1-.2-.368,1.4,1.4,0,0,1-.111-.423,1.348,1.348,0,0,1-.011-.212.745.745,0,0,1,.056-.212.855.855,0,0,1,.245-.368,1.081,1.081,0,0,1,.479-.245,1.516,1.516,0,0,1,.334-.045,2.513,2.513,0,0,1,.39.033,4.172,4.172,0,0,1,.434.111c.156.067.323.134.49.223a3.215,3.215,0,0,1-.045-.557,2.36,2.36,0,0,1,.078-.5,2.016,2.016,0,0,1,.2-.446,2.28,2.28,0,0,1,.29-.379,2.448,2.448,0,0,1,1.749-.68,1.645,1.645,0,0,1,.234.011l.234.033a2.9,2.9,0,0,1,.446.111,3.16,3.16,0,0,1,.39.178c.067.033.123.067.178.1a1.9,1.9,0,0,1,.156.123,1.371,1.371,0,0,1,.579,1.036c.1-.089.245-.256.434-.434a3.117,3.117,0,0,1,.78-.557,2.527,2.527,0,0,1,.557-.156,2.943,2.943,0,0,1,.323-.022,1.788,1.788,0,0,1,.334.033,2.381,2.381,0,0,1,.758.267c.123.078.256.156.39.256s.245.223.368.345a2.984,2.984,0,0,1,.557.8c.033.067.056.134.089.2a.941.941,0,0,1,.056.189,2.548,2.548,0,0,1,.078.379,1.8,1.8,0,0,1,.022.345,2.824,2.824,0,0,1-.045.323,2.3,2.3,0,0,1-.212.568,3.813,3.813,0,0,1-1.794,1.393,4.229,4.229,0,0,1,.568.156c.089.033.178.078.256.111s.156.089.234.134a2.235,2.235,0,0,1,.691.68A2.152,2.152,0,0,1,28.3,32.155Z" transform="translate(-14.222 -23.8)"/></g><path class="b" d="M26.517,31.185a2.935,2.935,0,0,1-2.061.991,2.3,2.3,0,0,1-.011,1.315,2.9,2.9,0,0,1-.713,1.214,3.158,3.158,0,0,1-.279.267c-.089.078-.2.156-.3.234a3.4,3.4,0,0,1-.334.212,4,4,0,0,1-.379.189,4.408,4.408,0,0,1-3.22.123l-.167-.056c-.056-.022-.111-.056-.167-.078a2.715,2.715,0,0,1-.312-.156,2.519,2.519,0,0,1-.29-.178c-.078-.056-.167-.123-.245-.189a2.149,2.149,0,0,1-.39-.39,2.031,2.031,0,0,1-.267-.39,1.858,1.858,0,0,1-.123-.345.871.871,0,0,1-.011-.29c-.156.011-.4.1-.713.134a2.761,2.761,0,0,1-.546.033,2.3,2.3,0,0,1-.668-.156,2.378,2.378,0,0,1-.39-.178c-.123-.078-.256-.167-.39-.267a4.109,4.109,0,0,1-.39-.379c-.067-.078-.134-.156-.189-.234l-.167-.267a2.608,2.608,0,0,1-.167-.3q-.067-.15-.134-.334l-.067-.178c-.011-.056-.033-.123-.045-.178-.033-.134-.056-.267-.078-.4a4.331,4.331,0,0,1,.123-1.86,4.933,4.933,0,0,1,.356-.936.452.452,0,0,1,.056-.1l.045-.089c.045-.067.078-.123.111-.178.078-.123.156-.234.223-.345.156-.189.312-.356.457-.512a4.652,4.652,0,0,1,.468-.379c.067-.045.145-.1.223-.145a1.935,1.935,0,0,1,.212-.111,4.686,4.686,0,0,1,.434-.189,3.368,3.368,0,0,1,.78-.134,2.885,2.885,0,0,1,.7.078,2.82,2.82,0,0,1,.613.2,7.09,7.09,0,0,1,1.069.624,3.153,3.153,0,0,1,1.092-2.351A3.824,3.824,0,0,1,21.56,23.8c.134-.033.256-.067.4-.1.067-.011.145-.022.223-.033.033-.011.067-.011.111-.022l.123-.011a4.13,4.13,0,0,1,.98.033,3.593,3.593,0,0,1,1.716.713,3.052,3.052,0,0,1,.98,1.315,2.5,2.5,0,0,1,.123,1.348,1.851,1.851,0,0,1-.5.947,1.427,1.427,0,0,1,.8.457,1.845,1.845,0,0,1,.524,1.159A2.188,2.188,0,0,1,26.517,31.185Z" transform="translate(-13.257 -23.616)"/><g transform="translate(0.591 0.19)"><path class="c" d="M23.939,30.809a1.656,1.656,0,0,1-1.448.735,2.991,2.991,0,0,1,.4,1.315,1.389,1.389,0,0,1-.067.613,1.163,1.163,0,0,1-.312.5,1.614,1.614,0,0,1-.947.457,2.4,2.4,0,0,1-1.136-.123,3.811,3.811,0,0,1-1.136-.657,4.224,4.224,0,0,1-.891-.958,3.228,3.228,0,0,1-.468-.947,1.167,1.167,0,0,1-.045-.691c-.134.022-.334.111-.6.167a1.631,1.631,0,0,1-.479.045,2.127,2.127,0,0,1-.613-.1,2.777,2.777,0,0,1-.724-.368,3.584,3.584,0,0,1-.78-.724,4.048,4.048,0,0,1-.657-1.125,3.981,3.981,0,0,1-.245-1.482,3.345,3.345,0,0,1,.323-1.359,3,3,0,0,1,.68-.9,2.3,2.3,0,0,1,1.571-.59,2.33,2.33,0,0,1,1.259.423,3.579,3.579,0,0,1,.836.858,2.007,2.007,0,0,1,.167-.613c.045-.089.089-.189.145-.279a1.383,1.383,0,0,1,.189-.256,2.556,2.556,0,0,1,1.058-.769,2.772,2.772,0,0,1,2.629.323,2.74,2.74,0,0,1,.847,1.014,2.549,2.549,0,0,1,.245,1.192,2.152,2.152,0,0,1-.078.546,2.355,2.355,0,0,1-.189.49,1.9,1.9,0,0,1-.646.68,1.7,1.7,0,0,1,.78.345,1.505,1.505,0,0,1,.356.39,1.644,1.644,0,0,1,.223.535A1.684,1.684,0,0,1,23.939,30.809Z" transform="translate(-13.787 -23.786)"/></g><g transform="translate(1.303 1.684)"><path class="d" d="M21.85,29.275a.847.847,0,0,1-.134.212,1.818,1.818,0,0,1-.223.189,1.4,1.4,0,0,1-1.5-.189,3.146,3.146,0,0,1,.189.958,1.213,1.213,0,0,1-.446.758,1.542,1.542,0,0,1-.39.245,1.682,1.682,0,0,1-.457.1A1.578,1.578,0,0,1,18,31.4a1.513,1.513,0,0,1-.624-.479,1.178,1.178,0,0,1-.189-.29,1.69,1.69,0,0,1-.1-.312,1.128,1.128,0,0,1,.245-1,3.381,3.381,0,0,1-1.437.3,1.481,1.481,0,0,1-.512-.145,1.462,1.462,0,0,1-.5-.39,1.8,1.8,0,0,1-.212-.323,1.863,1.863,0,0,1-.167-.423,2.094,2.094,0,0,1-.067-.546,1.6,1.6,0,0,1,.011-.323,2.019,2.019,0,0,1,.056-.345,2.559,2.559,0,0,1,.234-.657,2.393,2.393,0,0,1,.156-.29,2.049,2.049,0,0,1,.189-.245,2.149,2.149,0,0,1,.39-.39,2.259,2.259,0,0,1,.2-.145l.2-.1a1.629,1.629,0,0,1,.713-.145.854.854,0,0,1,.3.045.952.952,0,0,1,.267.1c.078.033.167.089.256.134a1.736,1.736,0,0,1,.223.178c.067.067.134.134.189.2a.436.436,0,0,1,.089.111.6.6,0,0,1,.056.123c.167.323.312.668.457,1a1.869,1.869,0,0,1,.724-1.7,1.715,1.715,0,0,1,.39-.167,1.336,1.336,0,0,1,.423-.045,1.607,1.607,0,0,1,.824.267,1.589,1.589,0,0,1,.568.646,1.49,1.49,0,0,1,.167.813,1.451,1.451,0,0,1-.279.735,1.69,1.69,0,0,1-.646.49,1.613,1.613,0,0,1,.769.123,1.053,1.053,0,0,1,.345.234.886.886,0,0,1,.2.379A.825.825,0,0,1,21.85,29.275Z" transform="translate(-14.426 -25.127)"/></g></g><g transform="translate(0 5.007)"><path class="a" d="M52.889,20.131a3.1,3.1,0,0,1-.234,1.092,2.8,2.8,0,0,1-1.537,1.549,2.6,2.6,0,0,1-2.206-.212,4.1,4.1,0,0,1,.279,2.317,1.946,1.946,0,0,1-.223.579c-.056.1-.1.178-.156.267s-.123.167-.189.245a3.078,3.078,0,0,1-.524.457,4.662,4.662,0,0,1-.746.356,3.009,3.009,0,0,1-1.571.123,2.628,2.628,0,0,1-1.092-.524,3.184,3.184,0,0,1-.646-.724c-.156-.234-.267-.423-.356-.524a.635.635,0,0,1-.1.245.826.826,0,0,1-.178.223,1.772,1.772,0,0,1-.267.223,1.751,1.751,0,0,1-.345.2,3.364,3.364,0,0,1-1.95.2,3.141,3.141,0,0,1-1.8-1.036,2.515,2.515,0,0,1-.49-1.994,3.552,3.552,0,0,1-1.7.356.947.947,0,0,1-.791-.423,1.536,1.536,0,0,1-.178-.791,3.5,3.5,0,0,1,.111-.813,3.411,3.411,0,0,1-.735.446,4.386,4.386,0,0,1-.746.279,2.832,2.832,0,0,1-1.27.089,1.963,1.963,0,0,1-1.081-.613,3.55,3.55,0,0,1-.29-.29c-.1-.1-.2-.234-.312-.356a9.55,9.55,0,0,1-.646-.936,9.892,9.892,0,0,1-.546,2.195,2.588,2.588,0,0,1-.568.824,1.9,1.9,0,0,1-.423.29,2.321,2.321,0,0,1-.535.2,2.6,2.6,0,0,1-.29.045,1.167,1.167,0,0,1-.279.011,1.967,1.967,0,0,1-.512-.078,2.882,2.882,0,0,1-.891-.434c-.535-.368-.958-.824-1.192-.958a1.845,1.845,0,0,1-.279,1.125,4,4,0,0,1-1,1.147,3.182,3.182,0,0,1-1.626.624,2.658,2.658,0,0,1-1.938-.646,2.776,2.776,0,0,1-.735,1.638,1.2,1.2,0,0,1-1,.368.933.933,0,0,1-.446-.156,1.235,1.235,0,0,1-.356-.279,2.371,2.371,0,0,1-.446-.7,2.524,2.524,0,0,1-.4.791,2.92,2.92,0,0,1-.312.334c-.111.089-.223.178-.356.267-.067.033-.134.078-.2.111s-.134.067-.212.1c-.134.056-.29.1-.434.145a3.38,3.38,0,0,1-.468.067c-.078,0-.156.011-.234.011H15.2l-.045-.011h-.078c-.056-.011-.111-.011-.167-.022a3.668,3.668,0,0,1-.668-.167c-.1-.045-.212-.1-.312-.145-.056-.033-.1-.056-.156-.089s-.089-.056-.134-.089a2.594,2.594,0,0,1-.869-.98,2.206,2.206,0,0,1-.189-.579,1.383,1.383,0,0,1-.033-.3,2.616,2.616,0,0,1,.011-.29,2.653,2.653,0,0,1,.056-.29,2.688,2.688,0,0,1,.089-.279l.134-.267.167-.267a4.3,4.3,0,0,1-.568.1,3.447,3.447,0,0,1-.59.022,2.714,2.714,0,0,1-.3-.011c-.1-.022-.2-.033-.3-.056a2.545,2.545,0,0,1-.579-.2,2.222,2.222,0,0,1-.535-.379,1.7,1.7,0,0,1-.245-.245,2.059,2.059,0,0,1-.212-.3,3.274,3.274,0,0,1-.446-1.649,2.894,2.894,0,0,1,.39-1.571,2.16,2.16,0,0,1,.39-.49,2.41,2.41,0,0,1,.446-.345,7.078,7.078,0,0,1,1.493-.546,1.59,1.59,0,0,1-.635-1.058,3.47,3.47,0,0,1,.089-1.771,3.118,3.118,0,0,1,1.114-1.593,2.5,2.5,0,0,1,2.028-.39A4.14,4.14,0,0,1,14.31,11.9a2.308,2.308,0,0,1,.056-.758,1.566,1.566,0,0,1,.245-.512,1.11,1.11,0,0,1,.379-.279,1.361,1.361,0,0,1,.891-.056,2.507,2.507,0,0,1,.758.334,2.586,2.586,0,0,1,.045-1.738,3.366,3.366,0,0,1,.2-.4,3.062,3.062,0,0,1,.256-.368,3,3,0,0,1,.691-.613,2.8,2.8,0,0,1,1.827-.4,3.779,3.779,0,0,1,.479.123,3.1,3.1,0,0,1,.49.212,3.59,3.59,0,0,1,.9.735,8.061,8.061,0,0,1,.045-1.159,3.441,3.441,0,0,1,.3-1.114,2.421,2.421,0,0,1,.746-.914,3.126,3.126,0,0,1,1.359-.479,2.674,2.674,0,0,1,1.415.189,3.262,3.262,0,0,1,.512.3,3.089,3.089,0,0,1,.39.368,5.3,5.3,0,0,1,.524.78,5.351,5.351,0,0,0,.3.557,1.158,1.158,0,0,1,.279-.468,2.153,2.153,0,0,1,.546-.423,3.268,3.268,0,0,1,.746-.312,4.29,4.29,0,0,1,.869-.145,3.632,3.632,0,0,1,.914.089,3.081,3.081,0,0,1,.847.345,2.808,2.808,0,0,1,1.17,1.638c1.069-1.2,1.827-1.315,2.306-1.025a1.992,1.992,0,0,1,.735,1.471,2.905,2.905,0,0,1,2.952-1.315,2.957,2.957,0,0,1,2.306,2.83,5.888,5.888,0,0,1,1.56-1.671,2.38,2.38,0,0,1,2.429-.078,2.587,2.587,0,0,1,1.5,1.927,9.513,9.513,0,0,1,.022,1.571,1.091,1.091,0,0,1,.479-.256,2.619,2.619,0,0,1,.691-.078,3.685,3.685,0,0,1,1.671.546,3.1,3.1,0,0,1,1.27,1.493,2.4,2.4,0,0,1-.178,2.083,2.578,2.578,0,0,1,1.749.524,1.286,1.286,0,0,1,.49,1.036,1.369,1.369,0,0,1-.39.88,1.947,1.947,0,0,1-.691.468,2.105,2.105,0,0,1,1.315,1.248A2.955,2.955,0,0,1,52.889,20.131Z" transform="translate(-9.23 -4.49)"/></g><g transform="translate(1.36)"><path class="b" d="M50.121,17.892a2.284,2.284,0,0,1-.479.624,2.966,2.966,0,0,1-.891.546,1.956,1.956,0,0,1,.691.88,1.943,1.943,0,0,1,.045,1.17,2.587,2.587,0,0,1-.613,1.136,3.063,3.063,0,0,1-1.092.758,3.282,3.282,0,0,1-.624.178,1.361,1.361,0,0,1-.29.033,1.19,1.19,0,0,1-.279.011,1.9,1.9,0,0,1-.512-.056,2.474,2.474,0,0,1-.434-.123,1.441,1.441,0,0,1-.9-.869c-.078.1-.178.3-.334.535a3.178,3.178,0,0,1-.6.735,2.409,2.409,0,0,1-1.025.568,2.765,2.765,0,0,1-1.471-.033,2.688,2.688,0,0,1-1.225-.691,1.952,1.952,0,0,1-.345-.468,2.547,2.547,0,0,1-.111-.256.628.628,0,0,1-.045-.134.474.474,0,0,1-.022-.123,8.856,8.856,0,0,1,0-2.239v-.011h-.011a4.578,4.578,0,0,1-.858.735,3.557,3.557,0,0,1-.824.412,2.5,2.5,0,0,1-.78.134c-.123,0-.234-.011-.356-.022s-.234-.045-.345-.078-.212-.089-.323-.145c-.045-.022-.1-.056-.156-.089a1.017,1.017,0,0,1-.145-.089,2.326,2.326,0,0,1-.535-.512,3.425,3.425,0,0,1-.724-1.482c-.189.423-.557,1.058-1.025,1.214A.8.8,0,0,1,32.686,20a2.666,2.666,0,0,1-.49-.468,7.181,7.181,0,0,1-.59-.8,2.857,2.857,0,0,1-2.573,2.005,3.7,3.7,0,0,1-1.415-.223l-.3-.134a1.962,1.962,0,0,1-.256-.156,1.227,1.227,0,0,1-.379-.379c-.033.134-.056.345-.089.613a5.886,5.886,0,0,1-.167.891,2.692,2.692,0,0,1-.412.914,2.015,2.015,0,0,1-.368.39,2.411,2.411,0,0,1-.524.312,2.164,2.164,0,0,1-2.128-.167,7.018,7.018,0,0,1-1.6-1.593,3.4,3.4,0,0,1-.6,2.005,2.55,2.55,0,0,1-1.56.936,3.809,3.809,0,0,1-.5.045,2.655,2.655,0,0,1-.512-.045.575.575,0,0,1-.123-.022.4.4,0,0,1-.123-.022c-.089-.033-.178-.056-.256-.089a1.455,1.455,0,0,1-.234-.089c-.067-.045-.123-.078-.189-.123a2.768,2.768,0,0,1-.334-.279,2.016,2.016,0,0,1-.279-.334,2.261,2.261,0,0,1-.379-.791,2.364,2.364,0,0,1-.434.691,1.831,1.831,0,0,1-.368.29,1.163,1.163,0,0,1-.434.134.9.9,0,0,1-.245,0,1.175,1.175,0,0,1-.267-.067,1.412,1.412,0,0,1-.256-.134,2.448,2.448,0,0,1-.256-.223,3.789,3.789,0,0,1-.234-.312,2.188,2.188,0,0,1-.178-.4,2.009,2.009,0,0,1-.123-.479,2.4,2.4,0,0,1-.011-.568,2.03,2.03,0,0,1-.557.178,1.867,1.867,0,0,1-.557,0,1.988,1.988,0,0,1-.546-.189,1.837,1.837,0,0,1-.5-.345,3.281,3.281,0,0,1-.4-.468,4.33,4.33,0,0,1-.279-.557,2.2,2.2,0,0,1-.089-.29,1.221,1.221,0,0,1-.067-.29c-.011-.1-.022-.189-.033-.29a.635.635,0,0,1-.011-.145v-.145a2.949,2.949,0,0,1,.6-1.794,1.465,1.465,0,0,1,1.025-.657c-.089-.1-.267-.234-.468-.412a4.1,4.1,0,0,1-.635-.713,3.845,3.845,0,0,1-.256-.479,2.037,2.037,0,0,1-.089-.279,2.541,2.541,0,0,1-.056-.958,1.446,1.446,0,0,1,.078-.368c.033-.123.078-.245.123-.379a2.32,2.32,0,0,1,1.883-1.526,5.827,5.827,0,0,1,2.261.312,3.2,3.2,0,0,1-.6-2.016,2.56,2.56,0,0,1,1.047-1.86,1.01,1.01,0,0,1,.178-.123,1.058,1.058,0,0,1,.189-.111,2.931,2.931,0,0,1,.8-.256,2.757,2.757,0,0,1,1.671.29,2.885,2.885,0,0,1-.234-.791,1.419,1.419,0,0,1,.134-.836,1.034,1.034,0,0,1,.3-.323,1.114,1.114,0,0,1,.512-.167A3.245,3.245,0,0,1,20.6,5.7a3.16,3.16,0,0,1,.022-1.081,2.472,2.472,0,0,1,.39-.869,3,3,0,0,1,.3-.356,4.366,4.366,0,0,1,.356-.279,2.78,2.78,0,0,1,.39-.234,1.882,1.882,0,0,1,.412-.167,3.8,3.8,0,0,1,.847-.167,2.546,2.546,0,0,1,.412,0,2.073,2.073,0,0,1,.379.045,2.36,2.36,0,0,1,.635.212,1.2,1.2,0,0,1,.412.356,9.084,9.084,0,0,1,.312-1.526,2.246,2.246,0,0,1,.6-.925,2.659,2.659,0,0,1,.512-.379,3.808,3.808,0,0,1,.713-.256,2.283,2.283,0,0,1,2.339.635,3.387,3.387,0,0,1,.635.936,10.827,10.827,0,0,1,.423,1.081,3.929,3.929,0,0,1,.568-1,2.538,2.538,0,0,1,.746-.646,3.614,3.614,0,0,1,.412-.212,3.056,3.056,0,0,1,.434-.1,2.594,2.594,0,0,1,.88,0,2.826,2.826,0,0,1,.813.29c.067.033.123.067.189.1s.111.089.178.134a3.839,3.839,0,0,1,.312.29,2.664,2.664,0,0,1,.468.7,2.509,2.509,0,0,1,.223.847,2.665,2.665,0,0,1,.535-.624,2.111,2.111,0,0,1,.368-.245,1.067,1.067,0,0,1,.412-.1.86.86,0,0,1,.434.078,1.143,1.143,0,0,1,.423.334,2.114,2.114,0,0,1,.356.635,3.579,3.579,0,0,1,.245.991,2.931,2.931,0,0,1,.936-.557,3.719,3.719,0,0,1,.479-.111,2.192,2.192,0,0,1,.468-.011,3.263,3.263,0,0,1,.457.078,1.991,1.991,0,0,1,.434.145,3.919,3.919,0,0,1,.769.49,2.749,2.749,0,0,1,.312.312,2.607,2.607,0,0,1,.267.345,2.649,2.649,0,0,1,.368.7,1.591,1.591,0,0,1,.045,1.192,7.66,7.66,0,0,1,1.471-.5,2.553,2.553,0,0,1,1.114.056,2.7,2.7,0,0,1,1.159.735A2.3,2.3,0,0,1,47.6,9.4a5.6,5.6,0,0,1-1.2,1.938h.011a3.072,3.072,0,0,1,2.083.279,2.513,2.513,0,0,1,1.159,1.337,2.7,2.7,0,0,1,.056,1.727,2.5,2.5,0,0,1-1.025,1.381,2.316,2.316,0,0,1,.8.189,1.341,1.341,0,0,1,.379.234,1,1,0,0,1,.29.356A1.16,1.16,0,0,1,50.121,17.892Z" transform="translate(-10.45 0.005)"/></g><g transform="translate(2.237 1.178)"><path class="c" d="M32.73,10.853A2.958,2.958,0,0,1,31.705,12.1a1.483,1.483,0,0,1-1.125.29,7.879,7.879,0,0,1,.813,1.315,2.4,2.4,0,0,1,.156,1.081,2.444,2.444,0,0,1-.167.635,2.644,2.644,0,0,1-.39.635,2.456,2.456,0,0,1-1.092.813,2.136,2.136,0,0,1-.568.111,3.147,3.147,0,0,1-.557-.056,3.481,3.481,0,0,1-1.036-.434,9.28,9.28,0,0,1-.936-.646,3.693,3.693,0,0,1,.145,1.114,2.745,2.745,0,0,1-.212.936,2.22,2.22,0,0,1-1.905,1.348,2.357,2.357,0,0,1-.791-.067,2.579,2.579,0,0,1-.735-.334,3.114,3.114,0,0,1-.646-.568,2.461,2.461,0,0,1-.022.8,1.38,1.38,0,0,1-.379.724.9.9,0,0,1-.869.156,2.17,2.17,0,0,1-.624-.312,4.013,4.013,0,0,1-.735-.68,2.2,2.2,0,0,1-.746,1.337,1.814,1.814,0,0,1-.39.256,2.547,2.547,0,0,1-1.927.134A2.422,2.422,0,0,1,16.5,20.5a1.387,1.387,0,0,1-.223-.111c-.078-.045-.145-.1-.212-.145s-.123-.1-.189-.145l-.167-.167a2.459,2.459,0,0,1-.279-.334,2.047,2.047,0,0,1-.178-.345,2.71,2.71,0,0,1-.1-.334.957.957,0,0,1,.056-.546c-.123.033-.334.134-.59.223a2.832,2.832,0,0,1-.969.134,1.361,1.361,0,0,1-.29-.033,1.5,1.5,0,0,1-.3-.078c-.1-.033-.212-.078-.312-.123s-.2-.123-.3-.189a2.878,2.878,0,0,1-1.014-1.4,2.745,2.745,0,0,1-.123-1.6,2.166,2.166,0,0,1,.624-1.036,4.361,4.361,0,0,1,2.106-.869A2.727,2.727,0,0,1,12.588,11.9a2.373,2.373,0,0,1,.111-1.794,2.425,2.425,0,0,1,1.237-1.17,2.394,2.394,0,0,1,1.671-.056,2.621,2.621,0,0,1-.39-.7,1.489,1.489,0,0,1-.078-.434.883.883,0,0,1,.056-.412.9.9,0,0,1,.7-.568,2.791,2.791,0,0,1,1.66.212,2.435,2.435,0,0,1,.156-1.927,2.528,2.528,0,0,1,1.27-1.092,2.959,2.959,0,0,1,1.526-.178,1.583,1.583,0,0,1,1.025.524,9.083,9.083,0,0,1,.156-1.515,2.234,2.234,0,0,1,1.593-1.626,2.141,2.141,0,0,1,2.239.535A5.158,5.158,0,0,1,26.592,3.69a2.773,2.773,0,0,1,1.225-1.671,2.262,2.262,0,0,1,1.827-.178,2.873,2.873,0,0,1,.568.223,2.957,2.957,0,0,1,.479.312,2.354,2.354,0,0,1,.646.824,2.359,2.359,0,0,1,.134.457,2,2,0,0,1,.011.446,1.775,1.775,0,0,1-.111.434,2.527,2.527,0,0,1-.212.379,1.845,1.845,0,0,1,.457-.089,1.472,1.472,0,0,1,.535.067,1.016,1.016,0,0,1,.724.9,1.563,1.563,0,0,1-.033.5c-.011.045-.022.1-.033.145-.011.022-.011.045-.022.067s-.011.033-.022.056c-.045.067-.078.134-.134.212a2.7,2.7,0,0,1-.434.446,4.093,4.093,0,0,1-.668.446,2.329,2.329,0,0,1,1.326,1.426A2.587,2.587,0,0,1,32.73,10.853Z" transform="translate(-11.238 -1.053)"/><g transform="translate(21.557 3.124)"><path class="c" d="M43.569,17.028a1.878,1.878,0,0,1,.033.368,1.613,1.613,0,0,1-.011.4,2.905,2.905,0,0,1-.9,1.738l-.1.1a.974.974,0,0,0-.111.089c-.078.056-.156.111-.223.156l-.234.134a.8.8,0,0,1-.223.1,1.857,1.857,0,0,1-.223.089c-.067.022-.145.033-.223.056l-.212.033a1.348,1.348,0,0,1-.212.011h-.2l-.189-.033a1.855,1.855,0,0,1-.356-.089,2.025,2.025,0,0,1-.312-.145,1.783,1.783,0,0,1-.279-.2,1.827,1.827,0,0,1-.446-.479,2.994,2.994,0,0,1-.312-.557,5.255,5.255,0,0,1-.2-.59c-.045-.2-.089-.4-.123-.6a1.092,1.092,0,0,1-.145.245.781.781,0,0,1-.167.212,1.427,1.427,0,0,1-.4.334,2.046,2.046,0,0,1-.479.189,2.694,2.694,0,0,1-.524.045,3.587,3.587,0,0,1-1.025-.223,1.578,1.578,0,0,1-.2-.089.831.831,0,0,1-.167-.1A2,2,0,0,1,35.091,18a3.036,3.036,0,0,1-.256-.279.715.715,0,0,1-.111-.145l-.1-.167a2.511,2.511,0,0,1-.256-.735,2.435,2.435,0,0,1-.033-.4,2.571,2.571,0,0,1,.033-.412,2.693,2.693,0,0,1,.256-.8,3.068,3.068,0,0,1-.746.3,1.342,1.342,0,0,1-.813-.056.941.941,0,0,1-.49-.758,2.712,2.712,0,0,1,.457-1.615,3.123,3.123,0,0,1-.557.011,2.353,2.353,0,0,1-.5-.111,1.67,1.67,0,0,1-.446-.223,2.62,2.62,0,0,1-.368-.334,2.573,2.573,0,0,1-.546-1.994,2.9,2.9,0,0,1,.334-.991,1.313,1.313,0,0,1,.123-.212c.045-.067.089-.123.134-.178a2.7,2.7,0,0,1,.3-.312c.111-.078.223-.156.323-.212a1.071,1.071,0,0,1,.312-.123.975.975,0,0,1,.535-.011c-.056-.123-.189-.3-.323-.535a2.9,2.9,0,0,1-.345-.88,2.361,2.361,0,0,1,.067-1.17,2.515,2.515,0,0,1,.88-1.214,2.2,2.2,0,0,1,2.473-.345c.167.089.356.178.524.29a2.509,2.509,0,0,1,.434.4A3.679,3.679,0,0,1,37,5.743a2.522,2.522,0,0,1,.189-.579A1.906,1.906,0,0,1,37.5,4.7a1.846,1.846,0,0,1,.423-.356,2.039,2.039,0,0,1,1.649-.212,2.788,2.788,0,0,1,1.025.557c.078.067.145.134.223.212.033.033.067.078.1.111s.056.067.078.1a2.382,2.382,0,0,1,.256.423,2.52,2.52,0,0,1,.2.88,2.191,2.191,0,0,1-.624,1.549,2.314,2.314,0,0,1,.8-.056,1.253,1.253,0,0,1,.769.312.889.889,0,0,1,.212.869,2.8,2.8,0,0,1-.9,1.381A2.292,2.292,0,0,1,43.8,13.018a2.861,2.861,0,0,1-.546,1.471,2.043,2.043,0,0,1-.479.457.992.992,0,0,1-.5.2c.1.1.279.234.479.423a2.849,2.849,0,0,1,.613.836A2.413,2.413,0,0,1,43.569,17.028Z" transform="translate(-30.588 -3.857)"/></g></g><g transform="translate(4.323 0.79)"><g transform="translate(21.713 6.492)"><path class="d" d="M41.412,13.292a1.328,1.328,0,0,1-1.315.457,2.613,2.613,0,0,1,.423,1.214,1.62,1.62,0,0,1-.29,1.058,1.745,1.745,0,0,1-.379.379,1.564,1.564,0,0,1-.479.223,1.69,1.69,0,0,1-.969.011,2.334,2.334,0,0,1-.869-.49,3.184,3.184,0,0,1-.68-.813,3.474,3.474,0,0,1-.368-.925,2.141,2.141,0,0,1-.045-.78c-.089.056-.234.2-.434.334a1.3,1.3,0,0,1-.379.167.741.741,0,0,1-.234.033,1.177,1.177,0,0,1-.267-.022,2.368,2.368,0,0,1-1.37-.991,6.065,6.065,0,0,1-.713-1.27,6.49,6.49,0,0,1-.423-1.749,3.911,3.911,0,0,1,.123-1.515,2.137,2.137,0,0,1,.468-.858,1.447,1.447,0,0,1,.568-.39,1.509,1.509,0,0,1,.568-.089,2.539,2.539,0,0,1,1.816,1.136,2.935,2.935,0,0,1,.022-.312,2.461,2.461,0,0,1,.056-.279,1.628,1.628,0,0,1,.223-.512,1.646,1.646,0,0,1,.836-.668,2.019,2.019,0,0,1,1.125-.056,2.556,2.556,0,0,1,1.114.579,3.373,3.373,0,0,1,.8,1.058,2.987,2.987,0,0,1,.3,1.181,1.966,1.966,0,0,1-.189.958,1.435,1.435,0,0,1-.59.59,2.378,2.378,0,0,1,.88.323,1.917,1.917,0,0,1,.735.88A1.208,1.208,0,0,1,41.412,13.292Z" transform="translate(-32.601 -6.531)"/></g><g transform="translate(15.115)"><path class="d" d="M36.06,5.456a1.394,1.394,0,0,1-.279.7,1.92,1.92,0,0,1-.3.3,1.723,1.723,0,0,1-.4.212,1.814,1.814,0,0,1-.49.089,2.214,2.214,0,0,1-.535-.045,1.907,1.907,0,0,1,.167.524,2.547,2.547,0,0,1,.022.279,1.972,1.972,0,0,1-.011.256,1.94,1.94,0,0,1-.056.245.827.827,0,0,1-.078.234,1.764,1.764,0,0,1-.234.423,2.315,2.315,0,0,1-.3.356c-.056.045-.134.1-.2.145a2.666,2.666,0,0,1-.234.145,1.364,1.364,0,0,1-.256.111c-.089.033-.178.067-.279.1a2.4,2.4,0,0,1-.3.056c-.056.011-.111.011-.156.022l-.078.011h-.089a2.814,2.814,0,0,1-.68-.067,2.927,2.927,0,0,1-.334-.1c-.111-.045-.223-.089-.323-.134a2.171,2.171,0,0,1-.858-.813,2.077,2.077,0,0,1-.111-.223,1.347,1.347,0,0,1-.056-.2,1.077,1.077,0,0,1-.033-.368,1.008,1.008,0,0,1,.067-.29.625.625,0,0,1,.134-.223c-.134,0-.356.022-.635.033a3.237,3.237,0,0,1-.446-.033,3.17,3.17,0,0,1-.512-.134,2.365,2.365,0,0,1-.98-.724,2.646,2.646,0,0,1-.524-1.482A2.881,2.881,0,0,1,27.048,3.3a2.555,2.555,0,0,1,1.025-.958A2.5,2.5,0,0,1,28.4,2.2a1.639,1.639,0,0,1,.334-.089,2.249,2.249,0,0,1,.668-.033c.1.022.223.033.323.067a2.232,2.232,0,0,1,.29.111,1.489,1.489,0,0,1,.446.379,1.851,1.851,0,0,1,.067-.6,1.841,1.841,0,0,1,.256-.512,2.068,2.068,0,0,1,.88-.668A2.541,2.541,0,0,1,32.729.711a2.611,2.611,0,0,1,.98.323,2.337,2.337,0,0,1,1.114,1.515,1.85,1.85,0,0,1-.022.891,1.581,1.581,0,0,1-.156.4,1.715,1.715,0,0,1-.256.356,1.8,1.8,0,0,1,.813-.011,1.158,1.158,0,0,1,.769.635A1.278,1.278,0,0,1,36.06,5.456Z" transform="translate(-26.678 -0.704)"/></g><g transform="translate(0 3.003)"><path class="d" d="M30.311,9.182a2.489,2.489,0,0,1-.022.412l-.033.2a.835.835,0,0,1-.056.178,1.218,1.218,0,0,1-.056.189l-.067.167c-.045.1-.1.2-.156.3a2.049,2.049,0,0,1-.189.245.5.5,0,0,1-.089.123l-.1.1-.212.178c-.067.045-.145.089-.212.134a2.232,2.232,0,0,1-.446.189A2.15,2.15,0,0,1,27,11.343a2.493,2.493,0,0,1,.234.769,1.856,1.856,0,0,1-.011.434,1.089,1.089,0,0,1-.145.39.9.9,0,0,1-.3.279,1.062,1.062,0,0,1-.49.111,2.971,2.971,0,0,1-1.549-.579,2.523,2.523,0,0,1-.457,1.849,2.344,2.344,0,0,1-1.326.847,3.019,3.019,0,0,1-.769.089c-.167.011-.345.011-.49.011-.167-.011-.312-.022-.446-.045-.535-.1-.824-.356-.891-.657-.089.145-.189.379-.345.68a5.647,5.647,0,0,1-.713.991,3.025,3.025,0,0,1-.267.267c-.1.089-.2.167-.312.256a4.33,4.33,0,0,1-.735.457c-.145.067-.29.134-.446.2-.145.045-.3.1-.468.145a3.778,3.778,0,0,1-.49.089c-.078.011-.167.011-.256.022h-.245A1.623,1.623,0,0,1,14.8,17.47a1.088,1.088,0,0,1-.189-.88,4.372,4.372,0,0,1,.969-1.76,3.287,3.287,0,0,1-.936.256A1.641,1.641,0,0,1,13.923,15a1.594,1.594,0,0,1-.457-.267,1.028,1.028,0,0,1-.256-.323c-.011-.033-.033-.067-.045-.1a.4.4,0,0,1-.022-.111,1.849,1.849,0,0,1-.033-.245.542.542,0,0,1,.011-.134.767.767,0,0,1,.022-.145,1.441,1.441,0,0,1,.089-.29,1.612,1.612,0,0,1,.145-.323c.067-.1.134-.212.212-.312a1.79,1.79,0,0,1,.267-.323c.1-.1.2-.212.3-.3a5.58,5.58,0,0,1,1.2-.813,4.779,4.779,0,0,1,1.292-.434A1.392,1.392,0,0,1,16,10.53a.8.8,0,0,1-.189-.323.813.813,0,0,1,0-.4,1.271,1.271,0,0,1,.256-.457,2.017,2.017,0,0,1,.546-.423,2.866,2.866,0,0,1,.824-.256,2.82,2.82,0,0,1,1.036.078,2.322,2.322,0,0,1-.078-1.916,2.2,2.2,0,0,1,.512-.724,2.1,2.1,0,0,1,.345-.279,2.708,2.708,0,0,1,.39-.223,1.578,1.578,0,0,1,.2-.089c.067-.022.145-.045.212-.067a2.914,2.914,0,0,1,.423-.1,2.823,2.823,0,0,1,.813.011,2.415,2.415,0,0,1,.334.089,1.879,1.879,0,0,1,.3.134,1.2,1.2,0,0,1,.379.368,5.979,5.979,0,0,0,.134-.6,3.41,3.41,0,0,1,.345-.88,3.122,3.122,0,0,1,.356-.446,2.721,2.721,0,0,1,.524-.368,3.078,3.078,0,0,1,.724-.223,2.607,2.607,0,0,1,.423-.033,3.586,3.586,0,0,1,.479.033,2.911,2.911,0,0,1,1.471.657,2.672,2.672,0,0,1,.4.49,2.565,2.565,0,0,1,.2.557,2.311,2.311,0,0,1,.067.557,3.3,3.3,0,0,1-.056.579,5.922,5.922,0,0,1-.279,1.1,2.377,2.377,0,0,1,1.058-.446,1.872,1.872,0,0,1,.557.022c.056.011.1.022.145.033A1.249,1.249,0,0,1,29,7.043a2.082,2.082,0,0,1,.279.134,2.3,2.3,0,0,1,.9,1.17c.033.134.078.267.1.412A2.71,2.71,0,0,1,30.311,9.182Z" transform="translate(-13.11 -3.4)"/></g></g></svg>