<svg xmlns="http://www.w3.org/2000/svg" width="28.072" height="35.275" viewBox="0 0 28.072 35.275"><defs><style>.a{fill:#a24603;}.b{fill:#6f2e01;}.c{fill:#423118;}</style></defs><path class="a" d="M49.832,75.507a20.45,20.45,0,0,1-3.078,11.019c-2.586,4.032-6.525,6.649-10.958,6.649-7.726,0-14.036-7.911-14.036-17.637a22.02,22.02,0,0,1,.77-5.756C24.438,62.856,29.64,57.9,35.8,57.9,43.553,57.839,49.832,65.78,49.832,75.507Z" transform="translate(-21.76 -57.9)"/><path class="b" d="M49.062,76.805c-1.908,6.926-7.11,11.881-13.266,11.881-7.726,0-14.036-7.911-14.036-17.637A20.45,20.45,0,0,1,24.838,60.03a21.844,21.844,0,0,0-.77,5.756c0,9.727,6.279,17.637,14.036,17.637C42.537,83.454,46.507,80.868,49.062,76.805Z" transform="translate(-21.76 -53.473)"/><path class="c" d="M35.8,57.9c-7.726,0-14.036,7.911-14.036,17.637S28.039,93.174,35.8,93.174s14.036-7.911,14.036-17.637S43.553,57.9,35.8,57.9ZM27.454,86.618a18.035,18.035,0,0,1-3.6-11.081,17.844,17.844,0,0,1,3.6-11.081,11.67,11.67,0,0,1,5.51-4.032C35.4,64.272,36.042,67.565,35,70.766a32.12,32.12,0,0,1-1.939,4.371,29.705,29.705,0,0,0-2,4.494,4.264,4.264,0,0,0-2.062-1.139,1.027,1.027,0,1,0-.462,2,2.238,2.238,0,0,1,1.693,1.816,2.974,2.974,0,0,1,.031.739,11.413,11.413,0,0,0,1.108,6.926,12.175,12.175,0,0,1-3.909-3.355Zm6.864,4.371a10.532,10.532,0,0,1-1.57-9.881A27.66,27.66,0,0,1,34.9,76.06a33.276,33.276,0,0,0,2.062-4.648c1.17-3.57.554-7.326-1.847-11.42a4.984,4.984,0,0,1,.677-.031,8.791,8.791,0,0,1,1.785.185c2.216,4.125,2.647,7.911,1.354,11.912a36.464,36.464,0,0,1-2.185,4.925l-.062.123a23.319,23.319,0,0,0-1.939,4.586c-1.016,3.663.646,7.264,1.97,9.388-.308.031-.616.031-.923.031a11.96,11.96,0,0,1-1.477-.123Zm9.85-4.371a11.709,11.709,0,0,1-5.294,3.94c-.031-.031-.031-.092-.062-.123-1.139-1.693-2.955-5.048-2.062-8.249a23.881,23.881,0,0,1,1.816-4.217l.062-.123a39.76,39.76,0,0,0,2.309-5.2,8.231,8.231,0,0,1,.523-1.539A2.211,2.211,0,0,1,43.368,70a1.047,1.047,0,1,0,0-2.093h0a4.033,4.033,0,0,0-1.6.339,14.889,14.889,0,0,0-.154-2.863,19.007,19.007,0,0,0-1.2-4.278A12.65,12.65,0,0,1,44.2,64.395a18.035,18.035,0,0,1,3.6,11.081,18.3,18.3,0,0,1-3.632,11.143Z" transform="translate(-21.76 -57.9)"/></svg>